M48
; DRILL file {KiCad 9.0.2} date 2025-09-14T19:20:07+0100
; FORMAT={-:-/ absolute / metric / decimal}
; #@! TF.CreationDate,2025-09-14T19:20:07+01:00
; #@! TF.GenerationSoftware,Kicad,Pcbnew,9.0.2
; #@! TF.FileFunction,Plated,1,4,PTH
FMAT,2
METRIC
; #@! TA.AperFunction,Plated,PTH,ViaDrill
T1C0.300
; #@! TA.AperFunction,Plated,PTH,ViaDrill
T2C0.400
; #@! TA.AperFunction,Plated,PTH,ComponentDrill
T3C0.500
; #@! TA.AperFunction,Plated,PTH,ComponentDrill
T4C0.550
; #@! TA.AperFunction,Plated,PTH,ComponentDrill
T5C0.750
; #@! TA.AperFunction,Plated,PTH,ComponentDrill
T6C0.800
; #@! TA.AperFunction,Plated,PTH,ComponentDrill
T7C0.850
; #@! TA.AperFunction,Plated,PTH,ComponentDrill
T8C0.900
; #@! TA.AperFunction,Plated,PTH,ComponentDrill
T9C1.000
; #@! TA.AperFunction,Plated,PTH,ComponentDrill
T10C1.100
; #@! TA.AperFunction,Plated,PTH,ComponentDrill
T11C1.520
; #@! TA.AperFunction,Plated,PTH,ComponentDrill
T12C2.000
; #@! TA.AperFunction,Plated,PTH,ComponentDrill
T13C2.700
; #@! TA.AperFunction,Plated,PTH,ComponentDrill
T14C4.000
%
G90
G05
T1
X24.232Y-125.705
X25.324Y-97.282
X26.746Y-41.275
X26.922Y-69.507
X27.073Y-105.588
X27.28Y-109.22
X29.134Y-97.511
X29.159Y-35.585
X30.048Y-101.702
X31.928Y-69.494
X32.029Y-36.855
X32.385Y-79.172
X32.588Y-105.791
X32.944Y-88.646
X33.096Y-111.785
X33.198Y-73.711
X33.376Y-65.151
X34.392Y-143.129
X34.392Y-155.626
X34.887Y-72.022
X35.839Y-144.018
X36.373Y-42.57
X36.5Y-156.997
X39.065Y-133.401
X40.411Y-148.133
X40.796Y-118.745
X41.359Y-81.584
X41.885Y-90.78
X41.91Y-67.513
X43.332Y-135.128
X44.653Y-128.168
X45.237Y-145.339
X46.304Y-130.708
X48.133Y-147.32
X49.651Y-84.33
X49.946Y-120.95
X51.096Y-144.899
X52.4Y-146.202
X53.34Y-52.375
X55.575Y-57.556
X55.956Y-44.882
X56.109Y-75.971
X56.515Y-133.858
X56.896Y-147.549
X57.302Y-143.139
X57.455Y-150.165
X57.937Y-35.103
X58.242Y-136.474
X58.649Y-127.559
X59.639Y-147.701
X59.792Y-84.226
X60.503Y-98.095
X60.681Y-106.731
X61.443Y-132.436
X61.824Y-74.524
X62.433Y-38.506
X63.221Y-133.129
X63.373Y-82.321
X63.475Y-159.41
X63.808Y-118.593
X63.856Y-47.117
X64.287Y-49.987
X64.807Y-106.858
X65.456Y-109.474
X66.396Y-127.305
X66.523Y-123.444
X67.081Y-43.459
X67.107Y-119.583
X67.412Y-115.443
X67.742Y-143.662
X67.767Y-125.755
X67.843Y-128.397
X67.861Y-136.943
X68.961Y-132.512
X69.748Y-42.359
X69.748Y-145.847
X70.345Y-92.9
X70.714Y-108.909
X71.171Y-74.193
X71.485Y-49.927
X71.617Y-40.361
X72.974Y-74.473
X73.355Y-76.124
X73.381Y-117.119
X73.431Y-82.652
X73.431Y-110.185
X73.736Y-123.241
X73.917Y-34.061
X73.917Y-40.411
X74.016Y-100.533
X74.016Y-106.833
X74.193Y-66.192
X74.701Y-130.048
X74.863Y-111.455
X75.133Y-44.475
X75.641Y-98.069
X76.316Y-106.833
X76.53Y-128.626
X76.581Y-125.755
X76.784Y-55.321
X76.81Y-86.97
X77.038Y-82.771
X77.546Y-74.752
X78.13Y-37.516
X78.283Y-42.977
X78.486Y-103.175
X80.162Y-102.616
X80.416Y-145.821
X81.026Y-50.317
X81.077Y-98.476
X81.382Y-47.396
X81.407Y-131.724
X81.596Y-106.833
X81.636Y-124.028
X82.003Y-72.441
X82.804Y-114.91
X83.414Y-144.551
X83.439Y-121.666
X83.896Y-106.833
X84.303Y-66.141
X84.303Y-72.441
X84.67Y-40.437
X87.274Y-84.15
X87.63Y-55.042
X88.519Y-129.438
X89.052Y-73.05
X89.637Y-53.01
X90.145Y-44.475
X90.219Y-40.412
X90.635Y-104.102
X91.364Y-119.685
X92.38Y-85.827
X92.519Y-37.795
X93.904Y-53.365
X94.361Y-138.786
X94.819Y-40.412
X95.25Y-120.167
X95.758Y-78.486
X95.939Y-82.93
X96.063Y-75.87
X96.139Y-59.512
X96.184Y-79.883
X97.104Y-38.125
X97.206Y-89.662
X97.384Y-83.058
X97.431Y-117.769
X98.019Y-76.81
X98.222Y-112.598
X98.704Y-84.76
X98.704Y-115.672
X98.806Y-53.035
X98.857Y-118.034
X99.619Y-89.103
X101.981Y-152.984
X102.337Y-127.152
X102.591Y-97.917
X102.718Y-112.09
X103.518Y-136.944
X104.267Y-56.204
X104.597Y-127.787
X104.648Y-42.824
X104.902Y-144.348
X104.978Y-153.67
X105.6Y-90.97
X106.705Y-142.9
X107.29Y-114.605
X107.671Y-138.024
X107.721Y-140.513
X107.95Y-90.449
X107.975Y-97.815
X108.306Y-152.502
X108.509Y-86.589
X109.22Y-122.403
X110.472Y-132.334
X111.303Y-137.262
X111.836Y-95.199
X111.963Y-132.893
X112.471Y-147.218
X113.335Y-52.908
X113.36Y-152.984
X113.589Y-156.972
X113.919Y-150.038
X113.944Y-110.719
X115.011Y-67.666
X115.334Y-84.861
X115.494Y-69.85
X116.627Y-96.558
X116.653Y-77.872
X116.967Y-90.729
X117.03Y-101.079
X117.196Y-95.174
X117.577Y-70.129
X117.881Y-118.034
X118.212Y-99.069
X118.593Y-115.214
X118.847Y-95.199
X118.923Y-72.542
X119.202Y-63.932
X119.228Y-74.828
X119.507Y-116.916
X119.609Y-92.786
X119.736Y-71.044
X119.786Y-79.223
X120.091Y-97.079
X120.091Y-137.668
X120.117Y-132.258
X120.142Y-99.517
X120.217Y-90.353
X120.345Y-81.356
X120.354Y-85.276
X120.701Y-106.756
X121.234Y-88.9
X121.26Y-157.193
X121.285Y-98.196
X121.463Y-86.97
X121.691Y-122.758
X121.704Y-93.205
X121.844Y-73.828
X121.895Y-103.099
X121.895Y-110.668
X121.92Y-64.846
X122.232Y-148.26
X122.418Y-83.957
X122.53Y-139.573
X122.682Y-89.51
X123.749Y-112.649
X123.8Y-99.67
X124.511Y-140.792
X124.536Y-87.757
X124.765Y-67.488
X125.044Y-23.343
X125.146Y-126.822
X125.222Y-74.828
X125.451Y-97.765
X125.552Y-136.398
X125.571Y-128.829
X125.832Y-104.775
X125.832Y-110.236
X126.162Y-144.551
X126.187Y-83.931
X126.188Y-91.084
X126.467Y-98.781
X126.771Y-86.258
X127.229Y-135.433
X127.279Y-71.542
X127.864Y-98.655
X128.075Y-84.515
X128.219Y-95.606
X128.524Y-44.653
X128.711Y-87.29
X128.956Y-69.782
X129.108Y-107.061
X129.156Y-98.405
X129.321Y-90.678
X129.62Y-84.801
X130.036Y-87.21
X130.2Y-102.997
X130.404Y-104.445
X130.48Y-156.083
X130.616Y-92.929
X130.937Y-124.003
X131.064Y-96.506
X131.207Y-91.663
X131.267Y-105.537
X131.293Y-153.518
X131.358Y-107.961
X131.42Y-87.097
X131.42Y-98.628
X131.47Y-151.613
X131.953Y-144.653
X132.137Y-125.451
X132.401Y-83.557
X133.096Y-156.286
X133.236Y-91.317
X133.299Y-96.342
X133.323Y-97.917
X133.375Y-105.232
X133.385Y-93.878
X133.833Y-149.885
X134.036Y-85.911
X134.561Y-106.451
X134.849Y-87.478
X135.062Y-89.59
X135.128Y-157.048
X135.331Y-102.405
X135.424Y-101.037
X135.704Y-107.306
X136.164Y-99.821
X136.868Y-102.369
X136.931Y-90.5
X136.957Y-156.337
X137.084Y-158.496
X137.236Y-79.553
X137.388Y-95.479
X137.617Y-93.946
X137.669Y-105.449
X137.795Y-87.003
X137.947Y-72.619
X137.976Y-117.264
X137.998Y-110.185
X138.142Y-89.702
X138.201Y-159.715
X138.311Y-97.714
X138.849Y-134.81
X138.93Y-150.673
X139.04Y-153.111
X139.16Y-105.458
X139.371Y-112.344
X139.446Y-87.59
X139.548Y-117.264
X140.081Y-125.095
X140.26Y-106.529
X140.437Y-93.666
X140.471Y-115.79
X140.564Y-68.301
X140.714Y-156.521
X141.63Y-72.695
X142.697Y-91.094
X142.745Y-88.3
X142.862Y-96.589
X143.027Y-111.074
X143.061Y-103.276
X143.383Y-57.252
X143.791Y-99.306
X143.815Y-108.737
X143.912Y-94.816
X144.137Y-91.887
X144.386Y-156.756
X144.435Y-90.415
X144.679Y-98.146
X144.983Y-137.414
X145.339Y-41.554
X145.339Y-115.283
X145.339Y-149.606
X145.567Y-59.106
X145.745Y-127.635
X145.778Y-141.351
X145.821Y-154.33
X146.126Y-132.639
X146.152Y-88.655
X146.355Y-135.382
X146.38Y-125.578
X147.041Y-99.974
X147.299Y-107.015
X147.439Y-91.801
X147.574Y-131.043
X147.579Y-109.639
X148.285Y-156.743
X148.311Y-71.888
X148.317Y-143.51
X148.387Y-75.159
X148.589Y-85.455
X148.59Y-124.79
X148.674Y-121.691
X148.692Y-96.19
X148.736Y-91.694
X148.92Y-138.684
X149.42Y-126.594
X149.922Y-92.855
X150.012Y-47.015
X150.021Y-99.858
X150.022Y-96.469
X150.216Y-88.376
X150.52Y-140.665
X150.859Y-118.364
X151.054Y-73.838
X151.257Y-47.625
X151.511Y-92.855
X151.714Y-64.592
X151.735Y-102.066
X151.792Y-103.653
X152.236Y-91.724
X152.695Y-43.739
X152.859Y-116.027
X153.518Y-103.607
X153.721Y-135.933
X153.822Y-159.309
X154.178Y-155.543
X154.28Y-146.228
X154.356Y-86.004
X154.432Y-130.005
X154.697Y-88.039
X154.813Y-104.369
X154.991Y-72.314
X155.189Y-116.376
X155.956Y-91.592
X156.108Y-89.738
X156.388Y-146.405
X156.87Y-127.805
X157.074Y-92.634
X157.302Y-117.78
X158.42Y-87.104
X158.445Y-122.555
X158.547Y-67.539
X158.648Y-108.433
X158.648Y-113.919
X158.877Y-90.297
X160.299Y-95.936
X160.477Y-137.033
X162.382Y-107.62
X162.662Y-119.405
X163.413Y-84.837
X163.652Y-67.666
X164.922Y-97.18
X164.973Y-75.108
X164.999Y-78.232
X165.049Y-72.365
X165.43Y-87.96
X165.583Y-126.543
X165.735Y-144.272
X167.259Y-112.801
X167.259Y-139.428
X167.843Y-129.616
X168.224Y-154.432
X168.453Y-104.419
X168.605Y-80.62
X168.605Y-82.702
X168.758Y-67.107
X170.231Y-62.662
X170.434Y-74.651
X170.612Y-127.711
X171.12Y-37.49
X172.314Y-107.696
X172.568Y-79.654
X172.593Y-93.167
X172.593Y-125.044
X172.872Y-89.129
X172.923Y-85.496
X173.253Y-112.243
X174.574Y-137.109
X174.625Y-120.777
X174.625Y-123.19
X175.006Y-152.679
X175.944Y-122.422
X176.149Y-50.317
X176.632Y-22.377
X177.013Y-142.85
X177.14Y-94.183
X178.147Y-46.736
X179.273Y-83.922
X180.264Y-67.742
X180.873Y-119.075
X181.585Y-83.591
X182.093Y-107.95
X182.093Y-148.361
X182.626Y-132.047
X182.728Y-113.556
X183.236Y-122.422
X184.429Y-31.547
X184.531Y-147.142
X185.471Y-112.356
X186.207Y-58.141
X186.411Y-60.833
X186.962Y-49.149
X187.046Y-86.335
X188.062Y-53.924
X188.316Y-107.569
X189.078Y-71.78
X189.408Y-54.966
X189.814Y-114.757
X190.195Y-48.666
X192.253Y-37.787
X192.253Y-40.087
X193.395Y-110.121
X193.802Y-146.863
X193.853Y-61.976
X194.132Y-123.622
X194.761Y-51.898
X195.707Y-107.95
X196.266Y-60.147
X197.206Y-48.463
X197.79Y-135.382
X198.552Y-113.557
X200.152Y-126.035
X200.609Y-149.911
X203.403Y-150.292
X204.8Y-66.015
X205.943Y-86.411
X207.924Y-114.706
X207.993Y-109.703
X208.153Y-122.606
X209.093Y-116.383
X209.245Y-104.013
X210.312Y-46.105
X211.785Y-104.267
X212.014Y-139.852
X212.293Y-137.566
X212.531Y-41.459
X213.563Y-49.428
X214.3Y-45.771
X215.646Y-123.165
X215.976Y-73.596
X216.56Y-111.404
X216.687Y-153.01
X217.195Y-76.022
X217.373Y-155.981
X217.83Y-108.534
X217.932Y-114.351
X218.313Y-78.486
X219.024Y-41.859
X219.05Y-110.439
X219.405Y-48.59
X219.405Y-121.412
X219.71Y-119.278
X221.412Y-41.637
X221.767Y-104.242
X221.957Y-55.398
X222.987Y-133.274
X223.977Y-78.892
X224.194Y-120.603
X224.206Y-92.329
X224.212Y-83.99
X224.257Y-49.098
X224.257Y-55.398
X224.307Y-58.725
X224.384Y-149.504
X225.781Y-118.389
X226.494Y-126.903
X227.66Y-150.647
X227.711Y-156.464
X228.151Y-152.012
X228.727Y-146.507
X229.133Y-126.416
X229.819Y-158.725
X230.124Y-153.416
X230.353Y-51.257
X231.496Y-46.126
X231.496Y-56.337
X232.029Y-150.851
X232.613Y-154.788
X236.068Y-145.542
X237.287Y-107.874
X242.9Y-53.442
X242.938Y-92.579
X245.847Y-123.495
X246.768Y-130.903
X247.777Y-155.219
X248.082Y-84.76
X248.285Y-50.876
X248.437Y-142.57
X249.199Y-120.447
X251.485Y-50.749
X251.866Y-52.807
T2
X49.009Y-48.857
X78.664Y-30.074
X82.37Y-34.137
X104.927Y-25.298
X253.648Y-109.11
T3
X26.024Y-153.264
X26.617Y-151.832
X26.617Y-154.695
X27.065Y-24.867
X27.658Y-23.435
X27.658Y-26.298
X28.049Y-151.239
X28.049Y-155.289
X29.09Y-22.842
X29.09Y-26.892
X29.48Y-151.832
X29.48Y-154.695
X30.074Y-153.264
X30.522Y-23.435
X30.522Y-26.298
X31.115Y-24.867
X83.37Y-95.047
X83.963Y-93.615
X83.963Y-96.479
X85.395Y-93.022
X85.395Y-97.072
X86.827Y-93.615
X86.827Y-96.479
X87.42Y-95.047
X181.917Y-24.994
X182.511Y-23.562
X182.511Y-26.425
X183.942Y-22.969
X183.942Y-27.019
X184.005Y-98.704
X184.598Y-97.273
X184.598Y-100.136
X185.374Y-23.562
X185.374Y-26.425
X185.967Y-24.994
X186.03Y-96.679
X186.03Y-100.729
X187.461Y-97.273
X187.461Y-100.136
X188.055Y-98.704
X213.926Y-24.994
X213.926Y-98.374
X214.519Y-23.562
X214.519Y-26.425
X214.519Y-96.942
X214.519Y-99.806
X215.951Y-22.969
X215.951Y-27.019
X215.951Y-96.349
X215.951Y-100.399
X217.383Y-23.562
X217.383Y-26.425
X217.383Y-96.942
X217.383Y-99.806
X217.976Y-24.994
X217.976Y-98.374
X251.864Y-24.994
X251.864Y-98.374
X252.457Y-23.562
X252.457Y-26.425
X252.457Y-96.942
X252.457Y-99.806
X253.889Y-22.969
X253.889Y-27.019
X253.889Y-96.349
X253.889Y-100.399
X254.236Y-153.511
X254.829Y-152.079
X254.829Y-154.942
X255.321Y-23.562
X255.321Y-26.425
X255.321Y-96.942
X255.321Y-99.806
X255.914Y-24.994
X255.914Y-98.374
X256.261Y-151.486
X256.261Y-155.536
X257.692Y-152.079
X257.692Y-154.942
X258.286Y-153.511
T5
X32.741Y-39.425
X34.519Y-39.425
X36.347Y-39.425
X37.035Y-69.583
X38.813Y-69.583
X39.137Y-103.327
X39.137Y-105.105
X39.137Y-106.934
X40.641Y-69.583
X68.169Y-77.953
X68.169Y-79.731
X68.169Y-81.559
X68.174Y-83.845
X68.174Y-85.623
X68.174Y-87.452
X68.761Y-117.958
X68.761Y-119.736
X68.761Y-121.564
X68.783Y-111.608
X68.783Y-113.386
X68.783Y-115.214
X68.974Y-51.791
X68.974Y-53.569
X68.974Y-55.397
X69.025Y-45.415
X69.025Y-47.193
X69.025Y-49.022
X73.304Y-79.98
X73.304Y-85.242
X73.663Y-114.194
X73.663Y-119.736
X73.812Y-47.875
X73.812Y-53.005
X75.133Y-79.98
X75.133Y-85.242
X75.492Y-114.194
X75.492Y-119.736
X75.641Y-47.875
X75.641Y-53.005
X76.911Y-79.98
X76.911Y-85.242
X77.27Y-114.194
X77.27Y-119.736
X77.419Y-47.875
X77.419Y-53.005
X190.913Y-83.532
X190.913Y-85.31
X190.913Y-87.139
X191.616Y-120.895
X191.616Y-122.673
X191.616Y-124.502
X191.668Y-50.267
X191.668Y-52.045
X191.668Y-53.873
X195.841Y-83.532
X195.841Y-85.31
X195.841Y-87.139
X196.469Y-50.241
X196.469Y-52.019
X196.469Y-53.848
X196.543Y-120.895
X196.543Y-122.673
X196.543Y-124.502
X201.789Y-83.482
X201.789Y-85.31
X201.789Y-87.088
X202.163Y-50.063
X202.163Y-51.892
X202.163Y-53.67
X202.491Y-120.794
X202.491Y-122.622
X202.491Y-124.4
X211.836Y-56.195
X212.242Y-127.152
X212.376Y-89.531
X213.614Y-56.195
X214.02Y-127.152
X214.154Y-89.531
X215.443Y-56.195
X215.849Y-127.152
X215.983Y-89.531
X233.274Y-89.408
X233.909Y-51.537
X235.052Y-89.408
X235.084Y-120.844
X235.687Y-51.537
X236.862Y-120.844
X236.88Y-89.408
X237.515Y-51.537
X238.691Y-120.844
T6
X27.0Y-100.609
X28.423Y-65.126
X29.235Y-109.779
X29.667Y-43.231
X29.999Y-74.054
X35.992Y-35.077
X37.16Y-100.609
X38.583Y-65.126
X39.395Y-109.779
X39.827Y-43.231
X40.159Y-74.054
X42.774Y-38.767
X42.774Y-42.621
X43.588Y-65.291
X43.715Y-69.329
X43.942Y-100.127
X43.967Y-104.419
X46.152Y-35.077
X52.934Y-38.767
X52.934Y-42.621
X53.748Y-65.291
X53.875Y-69.329
X54.102Y-100.127
X54.127Y-104.419
X63.219Y-76.505
X63.219Y-86.665
X63.629Y-110.922
X63.629Y-121.082
X63.856Y-45.009
X63.856Y-55.169
X80.162Y-76.149
X80.162Y-86.309
X80.572Y-109.982
X80.572Y-120.142
X80.874Y-138.455
X80.874Y-148.615
X81.382Y-45.242
X81.382Y-55.402
X84.023Y-80.569
X84.028Y-76.411
X84.379Y-115.646
X84.489Y-111.48
X84.988Y-138.414
X84.988Y-148.574
X85.42Y-44.882
X85.446Y-49.149
X94.183Y-80.569
X94.188Y-76.411
X94.539Y-115.646
X94.649Y-111.48
X95.58Y-44.882
X95.606Y-49.149
X101.166Y-66.137
X101.166Y-68.677
X101.605Y-34.895
X101.605Y-37.435
X101.618Y-76.784
X101.618Y-86.944
X101.859Y-100.757
X101.859Y-103.297
X102.26Y-44.75
X102.26Y-54.91
X102.743Y-110.031
X102.743Y-120.191
X106.215Y-76.733
X106.215Y-86.893
X106.858Y-44.75
X106.858Y-54.91
X107.34Y-110.031
X107.34Y-120.191
X108.786Y-66.137
X108.786Y-68.677
X109.225Y-34.895
X109.225Y-37.435
X109.479Y-100.757
X109.479Y-103.297
X118.77Y-107.62
X118.77Y-112.62
X123.571Y-102.961
X123.571Y-107.961
X124.054Y-121.412
X124.054Y-131.572
X124.333Y-146.637
X124.333Y-151.517
X129.159Y-120.426
X129.159Y-122.966
X129.159Y-125.506
X129.159Y-128.046
X129.159Y-130.586
X129.159Y-133.126
X129.159Y-135.666
X129.159Y-138.206
X129.159Y-140.746
X129.159Y-143.286
X129.159Y-145.826
X129.159Y-148.366
X129.159Y-150.906
X129.159Y-153.446
X136.779Y-120.426
X136.779Y-122.966
X136.779Y-125.506
X136.779Y-128.046
X136.779Y-130.586
X136.779Y-133.126
X136.779Y-135.666
X136.779Y-138.206
X136.779Y-140.746
X136.779Y-143.286
X136.779Y-145.826
X136.779Y-148.366
X136.779Y-150.906
X136.779Y-153.446
X138.1Y-25.959
X140.538Y-91.769
X140.538Y-96.649
X147.639Y-49.581
X148.26Y-25.959
X152.639Y-49.581
X158.561Y-59.69
X160.934Y-91.846
X160.934Y-102.006
X163.561Y-59.69
X164.835Y-91.516
X165.608Y-141.453
X165.608Y-151.613
X169.835Y-91.516
X175.144Y-80.357
X175.144Y-88.384
X176.124Y-46.838
X176.124Y-55.505
X176.736Y-117.137
X176.86Y-126.136
X177.013Y-70.688
X177.013Y-73.228
X177.673Y-37.49
X177.673Y-40.03
X177.851Y-107.467
X177.851Y-110.007
X181.051Y-142.977
X184.633Y-70.688
X184.633Y-73.228
X185.293Y-37.49
X185.293Y-40.03
X185.304Y-80.357
X185.304Y-88.384
X185.471Y-107.467
X185.471Y-110.007
X186.284Y-46.838
X186.284Y-55.505
X186.896Y-117.137
X187.02Y-126.136
X190.892Y-80.586
X191.211Y-142.977
X191.639Y-46.787
X191.973Y-117.119
X194.437Y-142.977
X201.052Y-80.586
X201.799Y-46.787
X202.133Y-117.119
X203.511Y-70.553
X203.613Y-74.947
X203.964Y-112.056
X203.99Y-107.967
X204.547Y-41.459
X204.572Y-37.598
X204.597Y-142.977
X206.149Y-116.806
X206.149Y-126.966
X206.502Y-46.362
X206.502Y-56.522
X206.553Y-80.213
X206.553Y-90.373
X211.963Y-154.66
X212.014Y-150.063
X213.671Y-70.553
X213.773Y-74.947
X214.124Y-112.056
X214.15Y-107.967
X214.707Y-41.459
X214.732Y-37.598
X222.123Y-154.66
X222.174Y-150.063
X230.556Y-74.168
X230.556Y-84.328
X234.823Y-33.579
X234.823Y-43.739
X234.925Y-72.39
X234.925Y-82.55
X235.541Y-104.055
X235.541Y-114.215
X239.065Y-33.579
X239.065Y-43.739
X239.166Y-104.038
X239.166Y-114.198
X244.399Y-46.761
X244.399Y-56.921
X245.304Y-79.143
X245.304Y-89.303
X245.803Y-116.577
X245.803Y-126.737
X248.285Y-46.457
X248.285Y-56.617
X248.58Y-79.168
X248.58Y-89.328
X249.257Y-116.552
X249.257Y-126.712
T8
X215.407Y-141.196
X215.407Y-146.196
X220.407Y-143.696
X225.44Y-141.34
X225.44Y-146.34
X230.44Y-143.84
T9
X39.573Y-153.624
X39.599Y-149.865
X41.199Y-140.797
X41.199Y-143.337
X41.199Y-145.877
X42.113Y-153.624
X42.139Y-149.865
X44.653Y-153.624
X44.679Y-149.865
X47.193Y-153.624
X47.219Y-149.865
X47.6Y-140.568
X49.733Y-153.624
X49.759Y-149.865
X50.14Y-140.568
X52.273Y-153.624
X52.299Y-149.865
X52.68Y-140.568
X54.813Y-153.624
X54.839Y-149.865
X55.22Y-140.568
X57.76Y-140.568
X59.588Y-153.598
X60.3Y-140.568
X62.128Y-153.598
X62.84Y-140.568
X64.668Y-153.598
X65.38Y-140.568
X67.208Y-153.598
X69.748Y-153.598
X72.288Y-153.598
X74.828Y-153.598
X76.403Y-140.06
X76.403Y-142.6
X76.403Y-145.14
X76.403Y-147.68
X97.155Y-138.938
X97.155Y-141.478
X97.155Y-144.018
X97.155Y-146.558
X114.732Y-93.015
X114.732Y-95.555
X114.732Y-98.095
X114.732Y-100.635
X114.732Y-103.175
X114.732Y-105.715
X117.173Y-120.823
X117.173Y-123.363
X117.173Y-125.903
X117.173Y-128.443
X117.173Y-130.983
X117.173Y-133.523
X117.173Y-136.063
X117.173Y-138.603
X117.173Y-141.143
X117.173Y-143.683
X117.173Y-146.223
X117.173Y-148.763
X117.173Y-151.303
X117.173Y-153.843
X117.173Y-156.383
X123.241Y-77.622
X123.241Y-81.356
X125.019Y-41.275
X125.019Y-43.815
X125.019Y-46.355
X125.019Y-48.895
X125.019Y-51.435
X125.019Y-53.975
X125.019Y-56.515
X125.019Y-59.055
X125.781Y-77.622
X125.781Y-81.356
X128.321Y-77.622
X128.321Y-81.356
X129.565Y-114.706
X130.861Y-77.622
X130.861Y-81.356
X132.105Y-114.706
X133.401Y-77.622
X133.401Y-81.356
X134.645Y-114.706
X135.941Y-77.622
X135.941Y-81.356
X137.185Y-114.706
X137.312Y-64.541
X138.481Y-77.622
X138.481Y-81.356
X139.852Y-64.541
X141.021Y-77.622
X141.021Y-81.356
X142.392Y-64.541
X142.723Y-120.883
X142.723Y-123.423
X142.723Y-125.963
X142.723Y-128.503
X142.723Y-131.043
X142.723Y-133.583
X142.723Y-136.123
X142.723Y-138.663
X142.723Y-141.203
X142.723Y-143.743
X142.723Y-146.283
X142.723Y-148.823
X142.723Y-151.363
X142.723Y-153.903
X142.723Y-156.443
X143.561Y-77.622
X143.561Y-81.356
X146.101Y-77.622
X146.101Y-81.356
X148.641Y-77.622
X148.641Y-81.356
X150.52Y-133.172
X150.978Y-143.865
X150.978Y-146.405
X150.978Y-148.945
X151.181Y-77.622
X151.181Y-81.356
X153.06Y-133.172
X153.721Y-77.622
X153.721Y-81.356
X154.61Y-108.199
X154.61Y-110.739
X155.6Y-133.172
X156.261Y-77.622
X156.261Y-81.356
X158.14Y-133.172
X158.801Y-77.622
X158.801Y-81.356
X160.528Y-143.865
X160.528Y-146.405
X160.528Y-148.945
X160.68Y-133.172
X161.338Y-112.436
X161.338Y-114.976
X161.341Y-77.622
X161.341Y-81.356
X170.815Y-143.865
X170.815Y-146.405
X170.815Y-148.945
X175.219Y-98.19
X175.219Y-100.73
X179.553Y-96.012
X179.553Y-98.552
X179.553Y-101.092
X204.216Y-97.787
X204.216Y-100.327
T10
X32.207Y-132.309
X32.207Y-134.849
X32.207Y-137.389
X43.842Y-73.063
X43.967Y-109.042
X46.736Y-59.792
X48.006Y-91.389
X49.276Y-59.792
X50.546Y-91.389
X51.816Y-59.792
X53.086Y-91.389
X54.002Y-73.063
X54.127Y-109.042
X56.286Y-38.335
X56.286Y-48.495
X136.601Y-59.639
X139.141Y-59.639
X141.681Y-59.639
X145.35Y-106.402
X145.35Y-112.902
X149.85Y-106.402
X149.85Y-112.902
X165.032Y-110.233
X165.032Y-116.733
X167.255Y-96.037
X167.255Y-102.537
X169.532Y-110.233
X169.532Y-116.733
X171.755Y-96.037
X171.755Y-102.537
X193.194Y-96.782
X193.194Y-101.282
X199.694Y-96.782
X199.694Y-101.282
X233.985Y-64.11
X236.398Y-26.162
X236.525Y-64.11
X238.938Y-26.162
X239.065Y-64.11
X239.547Y-97.841
X239.878Y-81.432
X239.878Y-91.592
X240.386Y-46.736
X240.386Y-56.896
X241.478Y-26.162
X242.087Y-97.841
X242.171Y-116.907
X242.171Y-127.067
X244.627Y-97.841
T11
X29.093Y-79.585
X29.093Y-84.665
X29.346Y-47.733
X29.346Y-52.813
X29.388Y-116.281
X29.388Y-121.361
X140.741Y-31.801
X140.741Y-36.881
X149.225Y-31.801
X149.225Y-36.881
X179.451Y-153.01
X184.531Y-153.01
X189.611Y-153.01
X196.291Y-153.01
X201.371Y-153.01
X206.451Y-153.01
X254.483Y-47.752
X254.483Y-52.832
X254.549Y-80.971
X254.549Y-86.051
X255.277Y-119.092
X255.277Y-124.172
T12
X237.706Y-141.985
X245.706Y-141.985
T13
X28.049Y-153.264
X29.09Y-24.867
X85.395Y-95.047
X183.942Y-24.994
X186.03Y-98.704
X215.951Y-24.994
X215.951Y-98.374
X253.889Y-24.994
X253.889Y-98.374
X256.261Y-153.511
T14
X241.706Y-147.985
T4
X112.233Y-25.343G85X112.233Y-24.693
G05
X119.983Y-25.343G85X119.983Y-24.693
G05
T7
X112.383Y-29.093G85X112.383Y-28.543
G05
X119.833Y-29.093G85X119.833Y-28.543
G05
T9
X156.133Y-27.318G85X156.133Y-29.318
G05
X161.833Y-25.318G85X159.833Y-25.318
G05
X161.833Y-31.318G85X159.833Y-31.318
G05
M30
