%TF.GenerationSoftware,KiCad,Pcbnew,9.0.2*%
%TF.CreationDate,2025-09-14T19:20:07+01:00*%
%TF.ProjectId,ESP_IOBoard_V4,4553505f-494f-4426-9f61-72645f56342e,rev?*%
%TF.SameCoordinates,Original*%
%TF.FileFunction,Drillmap*%
%TF.FilePolarity,Positive*%
%FSLAX45Y45*%
G04 Gerber Fmt 4.5, Leading zero omitted, Abs format (unit mm)*
G04 Created by KiCad (PCBNEW 9.0.2) date 2025-09-14 19:20:07*
%MOMM*%
%LPD*%
G01*
G04 APERTURE LIST*
%ADD10C,0.038100*%
%ADD11C,0.200000*%
%ADD12C,0.100000*%
%ADD13C,0.350000*%
G04 APERTURE END LIST*
D10*
X26187400Y-15611220D02*
G75*
G02*
X25687400Y-16111220I-500000J0D01*
G01*
X2222500Y-2217040D02*
G75*
G02*
X2722500Y-1717040I500000J0D01*
G01*
X2722500Y-1717040D02*
X25687400Y-1717040D01*
X25687400Y-1717040D02*
G75*
G02*
X26187400Y-2217040I0J-500000D01*
G01*
X2722500Y-16111220D02*
G75*
G02*
X2222500Y-15611220I0J500000D01*
G01*
X26187400Y-2217040D02*
X26187400Y-15611220D01*
X2222500Y-15611220D02*
X2222500Y-2217040D01*
X25687400Y-16111220D02*
X2722500Y-16111220D01*
D11*
D12*
X11320840Y-2736780D02*
X11400840Y-2816780D01*
X11400840Y-2736780D02*
X11320840Y-2816780D01*
X11820840Y-2736780D02*
X11900840Y-2816780D01*
X11900840Y-2736780D02*
X11820840Y-2816780D01*
D11*
X21890660Y-14369560D02*
G75*
G02*
X21690660Y-14369560I-100000J0D01*
G01*
X21690660Y-14369560D02*
G75*
G02*
X21890660Y-14369560I100000J0D01*
G01*
X22893960Y-14383990D02*
G75*
G02*
X22693960Y-14383990I-100000J0D01*
G01*
X22693960Y-14383990D02*
G75*
G02*
X22893960Y-14383990I100000J0D01*
G01*
D13*
X13914120Y-4122920D02*
X13914120Y-4472920D01*
X13739120Y-4297920D02*
X14089120Y-4297920D01*
D11*
X2481372Y-16424609D02*
X2481372Y-16224609D01*
X2481372Y-16224609D02*
X2528991Y-16224609D01*
X2528991Y-16224609D02*
X2557562Y-16234133D01*
X2557562Y-16234133D02*
X2576610Y-16253180D01*
X2576610Y-16253180D02*
X2586134Y-16272228D01*
X2586134Y-16272228D02*
X2595658Y-16310323D01*
X2595658Y-16310323D02*
X2595658Y-16338894D01*
X2595658Y-16338894D02*
X2586134Y-16376990D01*
X2586134Y-16376990D02*
X2576610Y-16396037D01*
X2576610Y-16396037D02*
X2557562Y-16415085D01*
X2557562Y-16415085D02*
X2528991Y-16424609D01*
X2528991Y-16424609D02*
X2481372Y-16424609D01*
X2681372Y-16424609D02*
X2681372Y-16291275D01*
X2681372Y-16329371D02*
X2690896Y-16310323D01*
X2690896Y-16310323D02*
X2700419Y-16300799D01*
X2700419Y-16300799D02*
X2719467Y-16291275D01*
X2719467Y-16291275D02*
X2738515Y-16291275D01*
X2805181Y-16424609D02*
X2805181Y-16291275D01*
X2805181Y-16224609D02*
X2795658Y-16234133D01*
X2795658Y-16234133D02*
X2805181Y-16243656D01*
X2805181Y-16243656D02*
X2814705Y-16234133D01*
X2814705Y-16234133D02*
X2805181Y-16224609D01*
X2805181Y-16224609D02*
X2805181Y-16243656D01*
X2928991Y-16424609D02*
X2909943Y-16415085D01*
X2909943Y-16415085D02*
X2900419Y-16396037D01*
X2900419Y-16396037D02*
X2900419Y-16224609D01*
X3033753Y-16424609D02*
X3014705Y-16415085D01*
X3014705Y-16415085D02*
X3005181Y-16396037D01*
X3005181Y-16396037D02*
X3005181Y-16224609D01*
X3262324Y-16424609D02*
X3262324Y-16224609D01*
X3262324Y-16224609D02*
X3328991Y-16367466D01*
X3328991Y-16367466D02*
X3395657Y-16224609D01*
X3395657Y-16224609D02*
X3395657Y-16424609D01*
X3576610Y-16424609D02*
X3576610Y-16319847D01*
X3576610Y-16319847D02*
X3567086Y-16300799D01*
X3567086Y-16300799D02*
X3548038Y-16291275D01*
X3548038Y-16291275D02*
X3509943Y-16291275D01*
X3509943Y-16291275D02*
X3490896Y-16300799D01*
X3576610Y-16415085D02*
X3557562Y-16424609D01*
X3557562Y-16424609D02*
X3509943Y-16424609D01*
X3509943Y-16424609D02*
X3490896Y-16415085D01*
X3490896Y-16415085D02*
X3481372Y-16396037D01*
X3481372Y-16396037D02*
X3481372Y-16376990D01*
X3481372Y-16376990D02*
X3490896Y-16357942D01*
X3490896Y-16357942D02*
X3509943Y-16348418D01*
X3509943Y-16348418D02*
X3557562Y-16348418D01*
X3557562Y-16348418D02*
X3576610Y-16338894D01*
X3671848Y-16291275D02*
X3671848Y-16491275D01*
X3671848Y-16300799D02*
X3690896Y-16291275D01*
X3690896Y-16291275D02*
X3728991Y-16291275D01*
X3728991Y-16291275D02*
X3748038Y-16300799D01*
X3748038Y-16300799D02*
X3757562Y-16310323D01*
X3757562Y-16310323D02*
X3767086Y-16329371D01*
X3767086Y-16329371D02*
X3767086Y-16386513D01*
X3767086Y-16386513D02*
X3757562Y-16405561D01*
X3757562Y-16405561D02*
X3748038Y-16415085D01*
X3748038Y-16415085D02*
X3728991Y-16424609D01*
X3728991Y-16424609D02*
X3690896Y-16424609D01*
X3690896Y-16424609D02*
X3671848Y-16415085D01*
X3852800Y-16405561D02*
X3862324Y-16415085D01*
X3862324Y-16415085D02*
X3852800Y-16424609D01*
X3852800Y-16424609D02*
X3843277Y-16415085D01*
X3843277Y-16415085D02*
X3852800Y-16405561D01*
X3852800Y-16405561D02*
X3852800Y-16424609D01*
X3852800Y-16300799D02*
X3862324Y-16310323D01*
X3862324Y-16310323D02*
X3852800Y-16319847D01*
X3852800Y-16319847D02*
X3843277Y-16310323D01*
X3843277Y-16310323D02*
X3852800Y-16300799D01*
X3852800Y-16300799D02*
X3852800Y-16319847D01*
D12*
X2140595Y-16713125D02*
X2220595Y-16793125D01*
X2220595Y-16713125D02*
X2140595Y-16793125D01*
D11*
X2519467Y-16644609D02*
X2538515Y-16644609D01*
X2538515Y-16644609D02*
X2557562Y-16654133D01*
X2557562Y-16654133D02*
X2567086Y-16663656D01*
X2567086Y-16663656D02*
X2576610Y-16682704D01*
X2576610Y-16682704D02*
X2586134Y-16720799D01*
X2586134Y-16720799D02*
X2586134Y-16768418D01*
X2586134Y-16768418D02*
X2576610Y-16806514D01*
X2576610Y-16806514D02*
X2567086Y-16825561D01*
X2567086Y-16825561D02*
X2557562Y-16835085D01*
X2557562Y-16835085D02*
X2538515Y-16844609D01*
X2538515Y-16844609D02*
X2519467Y-16844609D01*
X2519467Y-16844609D02*
X2500419Y-16835085D01*
X2500419Y-16835085D02*
X2490896Y-16825561D01*
X2490896Y-16825561D02*
X2481372Y-16806514D01*
X2481372Y-16806514D02*
X2471848Y-16768418D01*
X2471848Y-16768418D02*
X2471848Y-16720799D01*
X2471848Y-16720799D02*
X2481372Y-16682704D01*
X2481372Y-16682704D02*
X2490896Y-16663656D01*
X2490896Y-16663656D02*
X2500419Y-16654133D01*
X2500419Y-16654133D02*
X2519467Y-16644609D01*
X2671848Y-16825561D02*
X2681372Y-16835085D01*
X2681372Y-16835085D02*
X2671848Y-16844609D01*
X2671848Y-16844609D02*
X2662324Y-16835085D01*
X2662324Y-16835085D02*
X2671848Y-16825561D01*
X2671848Y-16825561D02*
X2671848Y-16844609D01*
X2795658Y-16730323D02*
X2776610Y-16720799D01*
X2776610Y-16720799D02*
X2767086Y-16711275D01*
X2767086Y-16711275D02*
X2757562Y-16692228D01*
X2757562Y-16692228D02*
X2757562Y-16682704D01*
X2757562Y-16682704D02*
X2767086Y-16663656D01*
X2767086Y-16663656D02*
X2776610Y-16654133D01*
X2776610Y-16654133D02*
X2795658Y-16644609D01*
X2795658Y-16644609D02*
X2833753Y-16644609D01*
X2833753Y-16644609D02*
X2852800Y-16654133D01*
X2852800Y-16654133D02*
X2862324Y-16663656D01*
X2862324Y-16663656D02*
X2871848Y-16682704D01*
X2871848Y-16682704D02*
X2871848Y-16692228D01*
X2871848Y-16692228D02*
X2862324Y-16711275D01*
X2862324Y-16711275D02*
X2852800Y-16720799D01*
X2852800Y-16720799D02*
X2833753Y-16730323D01*
X2833753Y-16730323D02*
X2795658Y-16730323D01*
X2795658Y-16730323D02*
X2776610Y-16739847D01*
X2776610Y-16739847D02*
X2767086Y-16749371D01*
X2767086Y-16749371D02*
X2757562Y-16768418D01*
X2757562Y-16768418D02*
X2757562Y-16806514D01*
X2757562Y-16806514D02*
X2767086Y-16825561D01*
X2767086Y-16825561D02*
X2776610Y-16835085D01*
X2776610Y-16835085D02*
X2795658Y-16844609D01*
X2795658Y-16844609D02*
X2833753Y-16844609D01*
X2833753Y-16844609D02*
X2852800Y-16835085D01*
X2852800Y-16835085D02*
X2862324Y-16825561D01*
X2862324Y-16825561D02*
X2871848Y-16806514D01*
X2871848Y-16806514D02*
X2871848Y-16768418D01*
X2871848Y-16768418D02*
X2862324Y-16749371D01*
X2862324Y-16749371D02*
X2852800Y-16739847D01*
X2852800Y-16739847D02*
X2833753Y-16730323D01*
X2995657Y-16644609D02*
X3014705Y-16644609D01*
X3014705Y-16644609D02*
X3033753Y-16654133D01*
X3033753Y-16654133D02*
X3043277Y-16663656D01*
X3043277Y-16663656D02*
X3052800Y-16682704D01*
X3052800Y-16682704D02*
X3062324Y-16720799D01*
X3062324Y-16720799D02*
X3062324Y-16768418D01*
X3062324Y-16768418D02*
X3052800Y-16806514D01*
X3052800Y-16806514D02*
X3043277Y-16825561D01*
X3043277Y-16825561D02*
X3033753Y-16835085D01*
X3033753Y-16835085D02*
X3014705Y-16844609D01*
X3014705Y-16844609D02*
X2995657Y-16844609D01*
X2995657Y-16844609D02*
X2976610Y-16835085D01*
X2976610Y-16835085D02*
X2967086Y-16825561D01*
X2967086Y-16825561D02*
X2957562Y-16806514D01*
X2957562Y-16806514D02*
X2948038Y-16768418D01*
X2948038Y-16768418D02*
X2948038Y-16720799D01*
X2948038Y-16720799D02*
X2957562Y-16682704D01*
X2957562Y-16682704D02*
X2967086Y-16663656D01*
X2967086Y-16663656D02*
X2976610Y-16654133D01*
X2976610Y-16654133D02*
X2995657Y-16644609D01*
X3186134Y-16644609D02*
X3205181Y-16644609D01*
X3205181Y-16644609D02*
X3224229Y-16654133D01*
X3224229Y-16654133D02*
X3233753Y-16663656D01*
X3233753Y-16663656D02*
X3243277Y-16682704D01*
X3243277Y-16682704D02*
X3252800Y-16720799D01*
X3252800Y-16720799D02*
X3252800Y-16768418D01*
X3252800Y-16768418D02*
X3243277Y-16806514D01*
X3243277Y-16806514D02*
X3233753Y-16825561D01*
X3233753Y-16825561D02*
X3224229Y-16835085D01*
X3224229Y-16835085D02*
X3205181Y-16844609D01*
X3205181Y-16844609D02*
X3186134Y-16844609D01*
X3186134Y-16844609D02*
X3167086Y-16835085D01*
X3167086Y-16835085D02*
X3157562Y-16825561D01*
X3157562Y-16825561D02*
X3148038Y-16806514D01*
X3148038Y-16806514D02*
X3138515Y-16768418D01*
X3138515Y-16768418D02*
X3138515Y-16720799D01*
X3138515Y-16720799D02*
X3148038Y-16682704D01*
X3148038Y-16682704D02*
X3157562Y-16663656D01*
X3157562Y-16663656D02*
X3167086Y-16654133D01*
X3167086Y-16654133D02*
X3186134Y-16644609D01*
X3338515Y-16844609D02*
X3338515Y-16711275D01*
X3338515Y-16730323D02*
X3348038Y-16720799D01*
X3348038Y-16720799D02*
X3367086Y-16711275D01*
X3367086Y-16711275D02*
X3395658Y-16711275D01*
X3395658Y-16711275D02*
X3414705Y-16720799D01*
X3414705Y-16720799D02*
X3424229Y-16739847D01*
X3424229Y-16739847D02*
X3424229Y-16844609D01*
X3424229Y-16739847D02*
X3433753Y-16720799D01*
X3433753Y-16720799D02*
X3452800Y-16711275D01*
X3452800Y-16711275D02*
X3481372Y-16711275D01*
X3481372Y-16711275D02*
X3500419Y-16720799D01*
X3500419Y-16720799D02*
X3509943Y-16739847D01*
X3509943Y-16739847D02*
X3509943Y-16844609D01*
X3605181Y-16844609D02*
X3605181Y-16711275D01*
X3605181Y-16730323D02*
X3614705Y-16720799D01*
X3614705Y-16720799D02*
X3633753Y-16711275D01*
X3633753Y-16711275D02*
X3662324Y-16711275D01*
X3662324Y-16711275D02*
X3681372Y-16720799D01*
X3681372Y-16720799D02*
X3690896Y-16739847D01*
X3690896Y-16739847D02*
X3690896Y-16844609D01*
X3690896Y-16739847D02*
X3700419Y-16720799D01*
X3700419Y-16720799D02*
X3719467Y-16711275D01*
X3719467Y-16711275D02*
X3748038Y-16711275D01*
X3748038Y-16711275D02*
X3767086Y-16720799D01*
X3767086Y-16720799D02*
X3776610Y-16739847D01*
X3776610Y-16739847D02*
X3776610Y-16844609D01*
X4167086Y-16635085D02*
X3995658Y-16892228D01*
X4424229Y-16644609D02*
X4443277Y-16644609D01*
X4443277Y-16644609D02*
X4462324Y-16654133D01*
X4462324Y-16654133D02*
X4471848Y-16663656D01*
X4471848Y-16663656D02*
X4481372Y-16682704D01*
X4481372Y-16682704D02*
X4490896Y-16720799D01*
X4490896Y-16720799D02*
X4490896Y-16768418D01*
X4490896Y-16768418D02*
X4481372Y-16806514D01*
X4481372Y-16806514D02*
X4471848Y-16825561D01*
X4471848Y-16825561D02*
X4462324Y-16835085D01*
X4462324Y-16835085D02*
X4443277Y-16844609D01*
X4443277Y-16844609D02*
X4424229Y-16844609D01*
X4424229Y-16844609D02*
X4405182Y-16835085D01*
X4405182Y-16835085D02*
X4395658Y-16825561D01*
X4395658Y-16825561D02*
X4386134Y-16806514D01*
X4386134Y-16806514D02*
X4376610Y-16768418D01*
X4376610Y-16768418D02*
X4376610Y-16720799D01*
X4376610Y-16720799D02*
X4386134Y-16682704D01*
X4386134Y-16682704D02*
X4395658Y-16663656D01*
X4395658Y-16663656D02*
X4405182Y-16654133D01*
X4405182Y-16654133D02*
X4424229Y-16644609D01*
X4576610Y-16825561D02*
X4586134Y-16835085D01*
X4586134Y-16835085D02*
X4576610Y-16844609D01*
X4576610Y-16844609D02*
X4567086Y-16835085D01*
X4567086Y-16835085D02*
X4576610Y-16825561D01*
X4576610Y-16825561D02*
X4576610Y-16844609D01*
X4709943Y-16644609D02*
X4728991Y-16644609D01*
X4728991Y-16644609D02*
X4748039Y-16654133D01*
X4748039Y-16654133D02*
X4757563Y-16663656D01*
X4757563Y-16663656D02*
X4767086Y-16682704D01*
X4767086Y-16682704D02*
X4776610Y-16720799D01*
X4776610Y-16720799D02*
X4776610Y-16768418D01*
X4776610Y-16768418D02*
X4767086Y-16806514D01*
X4767086Y-16806514D02*
X4757563Y-16825561D01*
X4757563Y-16825561D02*
X4748039Y-16835085D01*
X4748039Y-16835085D02*
X4728991Y-16844609D01*
X4728991Y-16844609D02*
X4709943Y-16844609D01*
X4709943Y-16844609D02*
X4690896Y-16835085D01*
X4690896Y-16835085D02*
X4681372Y-16825561D01*
X4681372Y-16825561D02*
X4671848Y-16806514D01*
X4671848Y-16806514D02*
X4662324Y-16768418D01*
X4662324Y-16768418D02*
X4662324Y-16720799D01*
X4662324Y-16720799D02*
X4671848Y-16682704D01*
X4671848Y-16682704D02*
X4681372Y-16663656D01*
X4681372Y-16663656D02*
X4690896Y-16654133D01*
X4690896Y-16654133D02*
X4709943Y-16644609D01*
X4843277Y-16644609D02*
X4967086Y-16644609D01*
X4967086Y-16644609D02*
X4900420Y-16720799D01*
X4900420Y-16720799D02*
X4928991Y-16720799D01*
X4928991Y-16720799D02*
X4948039Y-16730323D01*
X4948039Y-16730323D02*
X4957563Y-16739847D01*
X4957563Y-16739847D02*
X4967086Y-16758894D01*
X4967086Y-16758894D02*
X4967086Y-16806514D01*
X4967086Y-16806514D02*
X4957563Y-16825561D01*
X4957563Y-16825561D02*
X4948039Y-16835085D01*
X4948039Y-16835085D02*
X4928991Y-16844609D01*
X4928991Y-16844609D02*
X4871848Y-16844609D01*
X4871848Y-16844609D02*
X4852801Y-16835085D01*
X4852801Y-16835085D02*
X4843277Y-16825561D01*
X5157563Y-16844609D02*
X5043277Y-16844609D01*
X5100420Y-16844609D02*
X5100420Y-16644609D01*
X5100420Y-16644609D02*
X5081372Y-16673180D01*
X5081372Y-16673180D02*
X5062324Y-16692228D01*
X5062324Y-16692228D02*
X5043277Y-16701752D01*
X5338515Y-16644609D02*
X5243277Y-16644609D01*
X5243277Y-16644609D02*
X5233753Y-16739847D01*
X5233753Y-16739847D02*
X5243277Y-16730323D01*
X5243277Y-16730323D02*
X5262324Y-16720799D01*
X5262324Y-16720799D02*
X5309944Y-16720799D01*
X5309944Y-16720799D02*
X5328991Y-16730323D01*
X5328991Y-16730323D02*
X5338515Y-16739847D01*
X5338515Y-16739847D02*
X5348039Y-16758894D01*
X5348039Y-16758894D02*
X5348039Y-16806514D01*
X5348039Y-16806514D02*
X5338515Y-16825561D01*
X5338515Y-16825561D02*
X5328991Y-16835085D01*
X5328991Y-16835085D02*
X5309944Y-16844609D01*
X5309944Y-16844609D02*
X5262324Y-16844609D01*
X5262324Y-16844609D02*
X5243277Y-16835085D01*
X5243277Y-16835085D02*
X5233753Y-16825561D01*
X5424229Y-16644609D02*
X5424229Y-16682704D01*
X5500420Y-16644609D02*
X5500420Y-16682704D01*
X5795658Y-16920799D02*
X5786134Y-16911275D01*
X5786134Y-16911275D02*
X5767086Y-16882704D01*
X5767086Y-16882704D02*
X5757563Y-16863656D01*
X5757563Y-16863656D02*
X5748039Y-16835085D01*
X5748039Y-16835085D02*
X5738515Y-16787466D01*
X5738515Y-16787466D02*
X5738515Y-16749371D01*
X5738515Y-16749371D02*
X5748039Y-16701752D01*
X5748039Y-16701752D02*
X5757563Y-16673180D01*
X5757563Y-16673180D02*
X5767086Y-16654133D01*
X5767086Y-16654133D02*
X5786134Y-16625561D01*
X5786134Y-16625561D02*
X5795658Y-16616037D01*
X5862324Y-16663656D02*
X5871848Y-16654133D01*
X5871848Y-16654133D02*
X5890896Y-16644609D01*
X5890896Y-16644609D02*
X5938515Y-16644609D01*
X5938515Y-16644609D02*
X5957563Y-16654133D01*
X5957563Y-16654133D02*
X5967086Y-16663656D01*
X5967086Y-16663656D02*
X5976610Y-16682704D01*
X5976610Y-16682704D02*
X5976610Y-16701752D01*
X5976610Y-16701752D02*
X5967086Y-16730323D01*
X5967086Y-16730323D02*
X5852801Y-16844609D01*
X5852801Y-16844609D02*
X5976610Y-16844609D01*
X6214705Y-16844609D02*
X6214705Y-16644609D01*
X6300420Y-16844609D02*
X6300420Y-16739847D01*
X6300420Y-16739847D02*
X6290896Y-16720799D01*
X6290896Y-16720799D02*
X6271848Y-16711275D01*
X6271848Y-16711275D02*
X6243277Y-16711275D01*
X6243277Y-16711275D02*
X6224229Y-16720799D01*
X6224229Y-16720799D02*
X6214705Y-16730323D01*
X6424229Y-16844609D02*
X6405182Y-16835085D01*
X6405182Y-16835085D02*
X6395658Y-16825561D01*
X6395658Y-16825561D02*
X6386134Y-16806514D01*
X6386134Y-16806514D02*
X6386134Y-16749371D01*
X6386134Y-16749371D02*
X6395658Y-16730323D01*
X6395658Y-16730323D02*
X6405182Y-16720799D01*
X6405182Y-16720799D02*
X6424229Y-16711275D01*
X6424229Y-16711275D02*
X6452801Y-16711275D01*
X6452801Y-16711275D02*
X6471848Y-16720799D01*
X6471848Y-16720799D02*
X6481372Y-16730323D01*
X6481372Y-16730323D02*
X6490896Y-16749371D01*
X6490896Y-16749371D02*
X6490896Y-16806514D01*
X6490896Y-16806514D02*
X6481372Y-16825561D01*
X6481372Y-16825561D02*
X6471848Y-16835085D01*
X6471848Y-16835085D02*
X6452801Y-16844609D01*
X6452801Y-16844609D02*
X6424229Y-16844609D01*
X6605182Y-16844609D02*
X6586134Y-16835085D01*
X6586134Y-16835085D02*
X6576610Y-16816037D01*
X6576610Y-16816037D02*
X6576610Y-16644609D01*
X6757563Y-16835085D02*
X6738515Y-16844609D01*
X6738515Y-16844609D02*
X6700420Y-16844609D01*
X6700420Y-16844609D02*
X6681372Y-16835085D01*
X6681372Y-16835085D02*
X6671848Y-16816037D01*
X6671848Y-16816037D02*
X6671848Y-16739847D01*
X6671848Y-16739847D02*
X6681372Y-16720799D01*
X6681372Y-16720799D02*
X6700420Y-16711275D01*
X6700420Y-16711275D02*
X6738515Y-16711275D01*
X6738515Y-16711275D02*
X6757563Y-16720799D01*
X6757563Y-16720799D02*
X6767086Y-16739847D01*
X6767086Y-16739847D02*
X6767086Y-16758894D01*
X6767086Y-16758894D02*
X6671848Y-16777942D01*
X6843277Y-16835085D02*
X6862325Y-16844609D01*
X6862325Y-16844609D02*
X6900420Y-16844609D01*
X6900420Y-16844609D02*
X6919467Y-16835085D01*
X6919467Y-16835085D02*
X6928991Y-16816037D01*
X6928991Y-16816037D02*
X6928991Y-16806514D01*
X6928991Y-16806514D02*
X6919467Y-16787466D01*
X6919467Y-16787466D02*
X6900420Y-16777942D01*
X6900420Y-16777942D02*
X6871848Y-16777942D01*
X6871848Y-16777942D02*
X6852801Y-16768418D01*
X6852801Y-16768418D02*
X6843277Y-16749371D01*
X6843277Y-16749371D02*
X6843277Y-16739847D01*
X6843277Y-16739847D02*
X6852801Y-16720799D01*
X6852801Y-16720799D02*
X6871848Y-16711275D01*
X6871848Y-16711275D02*
X6900420Y-16711275D01*
X6900420Y-16711275D02*
X6919467Y-16720799D01*
X6995658Y-16920799D02*
X7005182Y-16911275D01*
X7005182Y-16911275D02*
X7024229Y-16882704D01*
X7024229Y-16882704D02*
X7033753Y-16863656D01*
X7033753Y-16863656D02*
X7043277Y-16835085D01*
X7043277Y-16835085D02*
X7052801Y-16787466D01*
X7052801Y-16787466D02*
X7052801Y-16749371D01*
X7052801Y-16749371D02*
X7043277Y-16701752D01*
X7043277Y-16701752D02*
X7033753Y-16673180D01*
X7033753Y-16673180D02*
X7024229Y-16654133D01*
X7024229Y-16654133D02*
X7005182Y-16625561D01*
X7005182Y-16625561D02*
X6995658Y-16616037D01*
X7357563Y-16920799D02*
X7348039Y-16911275D01*
X7348039Y-16911275D02*
X7328991Y-16882704D01*
X7328991Y-16882704D02*
X7319467Y-16863656D01*
X7319467Y-16863656D02*
X7309944Y-16835085D01*
X7309944Y-16835085D02*
X7300420Y-16787466D01*
X7300420Y-16787466D02*
X7300420Y-16749371D01*
X7300420Y-16749371D02*
X7309944Y-16701752D01*
X7309944Y-16701752D02*
X7319467Y-16673180D01*
X7319467Y-16673180D02*
X7328991Y-16654133D01*
X7328991Y-16654133D02*
X7348039Y-16625561D01*
X7348039Y-16625561D02*
X7357563Y-16616037D01*
X7433753Y-16711275D02*
X7433753Y-16844609D01*
X7433753Y-16730323D02*
X7443277Y-16720799D01*
X7443277Y-16720799D02*
X7462325Y-16711275D01*
X7462325Y-16711275D02*
X7490896Y-16711275D01*
X7490896Y-16711275D02*
X7509944Y-16720799D01*
X7509944Y-16720799D02*
X7519467Y-16739847D01*
X7519467Y-16739847D02*
X7519467Y-16844609D01*
X7643277Y-16844609D02*
X7624229Y-16835085D01*
X7624229Y-16835085D02*
X7614706Y-16825561D01*
X7614706Y-16825561D02*
X7605182Y-16806514D01*
X7605182Y-16806514D02*
X7605182Y-16749371D01*
X7605182Y-16749371D02*
X7614706Y-16730323D01*
X7614706Y-16730323D02*
X7624229Y-16720799D01*
X7624229Y-16720799D02*
X7643277Y-16711275D01*
X7643277Y-16711275D02*
X7671848Y-16711275D01*
X7671848Y-16711275D02*
X7690896Y-16720799D01*
X7690896Y-16720799D02*
X7700420Y-16730323D01*
X7700420Y-16730323D02*
X7709944Y-16749371D01*
X7709944Y-16749371D02*
X7709944Y-16806514D01*
X7709944Y-16806514D02*
X7700420Y-16825561D01*
X7700420Y-16825561D02*
X7690896Y-16835085D01*
X7690896Y-16835085D02*
X7671848Y-16844609D01*
X7671848Y-16844609D02*
X7643277Y-16844609D01*
X7767087Y-16711275D02*
X7843277Y-16711275D01*
X7795658Y-16644609D02*
X7795658Y-16816037D01*
X7795658Y-16816037D02*
X7805182Y-16835085D01*
X7805182Y-16835085D02*
X7824229Y-16844609D01*
X7824229Y-16844609D02*
X7843277Y-16844609D01*
X8062325Y-16711275D02*
X8062325Y-16911275D01*
X8062325Y-16720799D02*
X8081372Y-16711275D01*
X8081372Y-16711275D02*
X8119468Y-16711275D01*
X8119468Y-16711275D02*
X8138515Y-16720799D01*
X8138515Y-16720799D02*
X8148039Y-16730323D01*
X8148039Y-16730323D02*
X8157563Y-16749371D01*
X8157563Y-16749371D02*
X8157563Y-16806514D01*
X8157563Y-16806514D02*
X8148039Y-16825561D01*
X8148039Y-16825561D02*
X8138515Y-16835085D01*
X8138515Y-16835085D02*
X8119468Y-16844609D01*
X8119468Y-16844609D02*
X8081372Y-16844609D01*
X8081372Y-16844609D02*
X8062325Y-16835085D01*
X8271848Y-16844609D02*
X8252801Y-16835085D01*
X8252801Y-16835085D02*
X8243277Y-16816037D01*
X8243277Y-16816037D02*
X8243277Y-16644609D01*
X8433753Y-16844609D02*
X8433753Y-16739847D01*
X8433753Y-16739847D02*
X8424230Y-16720799D01*
X8424230Y-16720799D02*
X8405182Y-16711275D01*
X8405182Y-16711275D02*
X8367087Y-16711275D01*
X8367087Y-16711275D02*
X8348039Y-16720799D01*
X8433753Y-16835085D02*
X8414706Y-16844609D01*
X8414706Y-16844609D02*
X8367087Y-16844609D01*
X8367087Y-16844609D02*
X8348039Y-16835085D01*
X8348039Y-16835085D02*
X8338515Y-16816037D01*
X8338515Y-16816037D02*
X8338515Y-16796990D01*
X8338515Y-16796990D02*
X8348039Y-16777942D01*
X8348039Y-16777942D02*
X8367087Y-16768418D01*
X8367087Y-16768418D02*
X8414706Y-16768418D01*
X8414706Y-16768418D02*
X8433753Y-16758894D01*
X8500420Y-16711275D02*
X8576610Y-16711275D01*
X8528991Y-16644609D02*
X8528991Y-16816037D01*
X8528991Y-16816037D02*
X8538515Y-16835085D01*
X8538515Y-16835085D02*
X8557563Y-16844609D01*
X8557563Y-16844609D02*
X8576610Y-16844609D01*
X8719468Y-16835085D02*
X8700420Y-16844609D01*
X8700420Y-16844609D02*
X8662325Y-16844609D01*
X8662325Y-16844609D02*
X8643277Y-16835085D01*
X8643277Y-16835085D02*
X8633753Y-16816037D01*
X8633753Y-16816037D02*
X8633753Y-16739847D01*
X8633753Y-16739847D02*
X8643277Y-16720799D01*
X8643277Y-16720799D02*
X8662325Y-16711275D01*
X8662325Y-16711275D02*
X8700420Y-16711275D01*
X8700420Y-16711275D02*
X8719468Y-16720799D01*
X8719468Y-16720799D02*
X8728991Y-16739847D01*
X8728991Y-16739847D02*
X8728991Y-16758894D01*
X8728991Y-16758894D02*
X8633753Y-16777942D01*
X8900420Y-16844609D02*
X8900420Y-16644609D01*
X8900420Y-16835085D02*
X8881372Y-16844609D01*
X8881372Y-16844609D02*
X8843277Y-16844609D01*
X8843277Y-16844609D02*
X8824230Y-16835085D01*
X8824230Y-16835085D02*
X8814706Y-16825561D01*
X8814706Y-16825561D02*
X8805182Y-16806514D01*
X8805182Y-16806514D02*
X8805182Y-16749371D01*
X8805182Y-16749371D02*
X8814706Y-16730323D01*
X8814706Y-16730323D02*
X8824230Y-16720799D01*
X8824230Y-16720799D02*
X8843277Y-16711275D01*
X8843277Y-16711275D02*
X8881372Y-16711275D01*
X8881372Y-16711275D02*
X8900420Y-16720799D01*
X8976611Y-16920799D02*
X8986134Y-16911275D01*
X8986134Y-16911275D02*
X9005182Y-16882704D01*
X9005182Y-16882704D02*
X9014706Y-16863656D01*
X9014706Y-16863656D02*
X9024230Y-16835085D01*
X9024230Y-16835085D02*
X9033753Y-16787466D01*
X9033753Y-16787466D02*
X9033753Y-16749371D01*
X9033753Y-16749371D02*
X9024230Y-16701752D01*
X9024230Y-16701752D02*
X9014706Y-16673180D01*
X9014706Y-16673180D02*
X9005182Y-16654133D01*
X9005182Y-16654133D02*
X8986134Y-16625561D01*
X8986134Y-16625561D02*
X8976611Y-16616037D01*
X2220595Y-17017125D02*
G75*
G02*
X2020595Y-17017125I-100000J0D01*
G01*
X2020595Y-17017125D02*
G75*
G02*
X2220595Y-17017125I100000J0D01*
G01*
X2471848Y-16927656D02*
X2481372Y-16918133D01*
X2481372Y-16918133D02*
X2500419Y-16908609D01*
X2500419Y-16908609D02*
X2548039Y-16908609D01*
X2548039Y-16908609D02*
X2567086Y-16918133D01*
X2567086Y-16918133D02*
X2576610Y-16927656D01*
X2576610Y-16927656D02*
X2586134Y-16946704D01*
X2586134Y-16946704D02*
X2586134Y-16965752D01*
X2586134Y-16965752D02*
X2576610Y-16994323D01*
X2576610Y-16994323D02*
X2462324Y-17108609D01*
X2462324Y-17108609D02*
X2586134Y-17108609D01*
X2671848Y-17089561D02*
X2681372Y-17099085D01*
X2681372Y-17099085D02*
X2671848Y-17108609D01*
X2671848Y-17108609D02*
X2662324Y-17099085D01*
X2662324Y-17099085D02*
X2671848Y-17089561D01*
X2671848Y-17089561D02*
X2671848Y-17108609D01*
X2805181Y-16908609D02*
X2824229Y-16908609D01*
X2824229Y-16908609D02*
X2843277Y-16918133D01*
X2843277Y-16918133D02*
X2852800Y-16927656D01*
X2852800Y-16927656D02*
X2862324Y-16946704D01*
X2862324Y-16946704D02*
X2871848Y-16984799D01*
X2871848Y-16984799D02*
X2871848Y-17032418D01*
X2871848Y-17032418D02*
X2862324Y-17070514D01*
X2862324Y-17070514D02*
X2852800Y-17089561D01*
X2852800Y-17089561D02*
X2843277Y-17099085D01*
X2843277Y-17099085D02*
X2824229Y-17108609D01*
X2824229Y-17108609D02*
X2805181Y-17108609D01*
X2805181Y-17108609D02*
X2786134Y-17099085D01*
X2786134Y-17099085D02*
X2776610Y-17089561D01*
X2776610Y-17089561D02*
X2767086Y-17070514D01*
X2767086Y-17070514D02*
X2757562Y-17032418D01*
X2757562Y-17032418D02*
X2757562Y-16984799D01*
X2757562Y-16984799D02*
X2767086Y-16946704D01*
X2767086Y-16946704D02*
X2776610Y-16927656D01*
X2776610Y-16927656D02*
X2786134Y-16918133D01*
X2786134Y-16918133D02*
X2805181Y-16908609D01*
X2995657Y-16908609D02*
X3014705Y-16908609D01*
X3014705Y-16908609D02*
X3033753Y-16918133D01*
X3033753Y-16918133D02*
X3043277Y-16927656D01*
X3043277Y-16927656D02*
X3052800Y-16946704D01*
X3052800Y-16946704D02*
X3062324Y-16984799D01*
X3062324Y-16984799D02*
X3062324Y-17032418D01*
X3062324Y-17032418D02*
X3052800Y-17070514D01*
X3052800Y-17070514D02*
X3043277Y-17089561D01*
X3043277Y-17089561D02*
X3033753Y-17099085D01*
X3033753Y-17099085D02*
X3014705Y-17108609D01*
X3014705Y-17108609D02*
X2995657Y-17108609D01*
X2995657Y-17108609D02*
X2976610Y-17099085D01*
X2976610Y-17099085D02*
X2967086Y-17089561D01*
X2967086Y-17089561D02*
X2957562Y-17070514D01*
X2957562Y-17070514D02*
X2948038Y-17032418D01*
X2948038Y-17032418D02*
X2948038Y-16984799D01*
X2948038Y-16984799D02*
X2957562Y-16946704D01*
X2957562Y-16946704D02*
X2967086Y-16927656D01*
X2967086Y-16927656D02*
X2976610Y-16918133D01*
X2976610Y-16918133D02*
X2995657Y-16908609D01*
X3186134Y-16908609D02*
X3205181Y-16908609D01*
X3205181Y-16908609D02*
X3224229Y-16918133D01*
X3224229Y-16918133D02*
X3233753Y-16927656D01*
X3233753Y-16927656D02*
X3243277Y-16946704D01*
X3243277Y-16946704D02*
X3252800Y-16984799D01*
X3252800Y-16984799D02*
X3252800Y-17032418D01*
X3252800Y-17032418D02*
X3243277Y-17070514D01*
X3243277Y-17070514D02*
X3233753Y-17089561D01*
X3233753Y-17089561D02*
X3224229Y-17099085D01*
X3224229Y-17099085D02*
X3205181Y-17108609D01*
X3205181Y-17108609D02*
X3186134Y-17108609D01*
X3186134Y-17108609D02*
X3167086Y-17099085D01*
X3167086Y-17099085D02*
X3157562Y-17089561D01*
X3157562Y-17089561D02*
X3148038Y-17070514D01*
X3148038Y-17070514D02*
X3138515Y-17032418D01*
X3138515Y-17032418D02*
X3138515Y-16984799D01*
X3138515Y-16984799D02*
X3148038Y-16946704D01*
X3148038Y-16946704D02*
X3157562Y-16927656D01*
X3157562Y-16927656D02*
X3167086Y-16918133D01*
X3167086Y-16918133D02*
X3186134Y-16908609D01*
X3338515Y-17108609D02*
X3338515Y-16975275D01*
X3338515Y-16994323D02*
X3348038Y-16984799D01*
X3348038Y-16984799D02*
X3367086Y-16975275D01*
X3367086Y-16975275D02*
X3395658Y-16975275D01*
X3395658Y-16975275D02*
X3414705Y-16984799D01*
X3414705Y-16984799D02*
X3424229Y-17003847D01*
X3424229Y-17003847D02*
X3424229Y-17108609D01*
X3424229Y-17003847D02*
X3433753Y-16984799D01*
X3433753Y-16984799D02*
X3452800Y-16975275D01*
X3452800Y-16975275D02*
X3481372Y-16975275D01*
X3481372Y-16975275D02*
X3500419Y-16984799D01*
X3500419Y-16984799D02*
X3509943Y-17003847D01*
X3509943Y-17003847D02*
X3509943Y-17108609D01*
X3605181Y-17108609D02*
X3605181Y-16975275D01*
X3605181Y-16994323D02*
X3614705Y-16984799D01*
X3614705Y-16984799D02*
X3633753Y-16975275D01*
X3633753Y-16975275D02*
X3662324Y-16975275D01*
X3662324Y-16975275D02*
X3681372Y-16984799D01*
X3681372Y-16984799D02*
X3690896Y-17003847D01*
X3690896Y-17003847D02*
X3690896Y-17108609D01*
X3690896Y-17003847D02*
X3700419Y-16984799D01*
X3700419Y-16984799D02*
X3719467Y-16975275D01*
X3719467Y-16975275D02*
X3748038Y-16975275D01*
X3748038Y-16975275D02*
X3767086Y-16984799D01*
X3767086Y-16984799D02*
X3776610Y-17003847D01*
X3776610Y-17003847D02*
X3776610Y-17108609D01*
X4167086Y-16899085D02*
X3995658Y-17156228D01*
X4424229Y-16908609D02*
X4443277Y-16908609D01*
X4443277Y-16908609D02*
X4462324Y-16918133D01*
X4462324Y-16918133D02*
X4471848Y-16927656D01*
X4471848Y-16927656D02*
X4481372Y-16946704D01*
X4481372Y-16946704D02*
X4490896Y-16984799D01*
X4490896Y-16984799D02*
X4490896Y-17032418D01*
X4490896Y-17032418D02*
X4481372Y-17070514D01*
X4481372Y-17070514D02*
X4471848Y-17089561D01*
X4471848Y-17089561D02*
X4462324Y-17099085D01*
X4462324Y-17099085D02*
X4443277Y-17108609D01*
X4443277Y-17108609D02*
X4424229Y-17108609D01*
X4424229Y-17108609D02*
X4405182Y-17099085D01*
X4405182Y-17099085D02*
X4395658Y-17089561D01*
X4395658Y-17089561D02*
X4386134Y-17070514D01*
X4386134Y-17070514D02*
X4376610Y-17032418D01*
X4376610Y-17032418D02*
X4376610Y-16984799D01*
X4376610Y-16984799D02*
X4386134Y-16946704D01*
X4386134Y-16946704D02*
X4395658Y-16927656D01*
X4395658Y-16927656D02*
X4405182Y-16918133D01*
X4405182Y-16918133D02*
X4424229Y-16908609D01*
X4576610Y-17089561D02*
X4586134Y-17099085D01*
X4586134Y-17099085D02*
X4576610Y-17108609D01*
X4576610Y-17108609D02*
X4567086Y-17099085D01*
X4567086Y-17099085D02*
X4576610Y-17089561D01*
X4576610Y-17089561D02*
X4576610Y-17108609D01*
X4709943Y-16908609D02*
X4728991Y-16908609D01*
X4728991Y-16908609D02*
X4748039Y-16918133D01*
X4748039Y-16918133D02*
X4757563Y-16927656D01*
X4757563Y-16927656D02*
X4767086Y-16946704D01*
X4767086Y-16946704D02*
X4776610Y-16984799D01*
X4776610Y-16984799D02*
X4776610Y-17032418D01*
X4776610Y-17032418D02*
X4767086Y-17070514D01*
X4767086Y-17070514D02*
X4757563Y-17089561D01*
X4757563Y-17089561D02*
X4748039Y-17099085D01*
X4748039Y-17099085D02*
X4728991Y-17108609D01*
X4728991Y-17108609D02*
X4709943Y-17108609D01*
X4709943Y-17108609D02*
X4690896Y-17099085D01*
X4690896Y-17099085D02*
X4681372Y-17089561D01*
X4681372Y-17089561D02*
X4671848Y-17070514D01*
X4671848Y-17070514D02*
X4662324Y-17032418D01*
X4662324Y-17032418D02*
X4662324Y-16984799D01*
X4662324Y-16984799D02*
X4671848Y-16946704D01*
X4671848Y-16946704D02*
X4681372Y-16927656D01*
X4681372Y-16927656D02*
X4690896Y-16918133D01*
X4690896Y-16918133D02*
X4709943Y-16908609D01*
X4843277Y-16908609D02*
X4976610Y-16908609D01*
X4976610Y-16908609D02*
X4890896Y-17108609D01*
X5081372Y-16994323D02*
X5062324Y-16984799D01*
X5062324Y-16984799D02*
X5052801Y-16975275D01*
X5052801Y-16975275D02*
X5043277Y-16956228D01*
X5043277Y-16956228D02*
X5043277Y-16946704D01*
X5043277Y-16946704D02*
X5052801Y-16927656D01*
X5052801Y-16927656D02*
X5062324Y-16918133D01*
X5062324Y-16918133D02*
X5081372Y-16908609D01*
X5081372Y-16908609D02*
X5119467Y-16908609D01*
X5119467Y-16908609D02*
X5138515Y-16918133D01*
X5138515Y-16918133D02*
X5148039Y-16927656D01*
X5148039Y-16927656D02*
X5157563Y-16946704D01*
X5157563Y-16946704D02*
X5157563Y-16956228D01*
X5157563Y-16956228D02*
X5148039Y-16975275D01*
X5148039Y-16975275D02*
X5138515Y-16984799D01*
X5138515Y-16984799D02*
X5119467Y-16994323D01*
X5119467Y-16994323D02*
X5081372Y-16994323D01*
X5081372Y-16994323D02*
X5062324Y-17003847D01*
X5062324Y-17003847D02*
X5052801Y-17013371D01*
X5052801Y-17013371D02*
X5043277Y-17032418D01*
X5043277Y-17032418D02*
X5043277Y-17070514D01*
X5043277Y-17070514D02*
X5052801Y-17089561D01*
X5052801Y-17089561D02*
X5062324Y-17099085D01*
X5062324Y-17099085D02*
X5081372Y-17108609D01*
X5081372Y-17108609D02*
X5119467Y-17108609D01*
X5119467Y-17108609D02*
X5138515Y-17099085D01*
X5138515Y-17099085D02*
X5148039Y-17089561D01*
X5148039Y-17089561D02*
X5157563Y-17070514D01*
X5157563Y-17070514D02*
X5157563Y-17032418D01*
X5157563Y-17032418D02*
X5148039Y-17013371D01*
X5148039Y-17013371D02*
X5138515Y-17003847D01*
X5138515Y-17003847D02*
X5119467Y-16994323D01*
X5224229Y-16908609D02*
X5357563Y-16908609D01*
X5357563Y-16908609D02*
X5271848Y-17108609D01*
X5424229Y-16908609D02*
X5424229Y-16946704D01*
X5500420Y-16908609D02*
X5500420Y-16946704D01*
X5795658Y-17184799D02*
X5786134Y-17175275D01*
X5786134Y-17175275D02*
X5767086Y-17146704D01*
X5767086Y-17146704D02*
X5757563Y-17127656D01*
X5757563Y-17127656D02*
X5748039Y-17099085D01*
X5748039Y-17099085D02*
X5738515Y-17051466D01*
X5738515Y-17051466D02*
X5738515Y-17013371D01*
X5738515Y-17013371D02*
X5748039Y-16965752D01*
X5748039Y-16965752D02*
X5757563Y-16937180D01*
X5757563Y-16937180D02*
X5767086Y-16918133D01*
X5767086Y-16918133D02*
X5786134Y-16889561D01*
X5786134Y-16889561D02*
X5795658Y-16880037D01*
X5862324Y-16927656D02*
X5871848Y-16918133D01*
X5871848Y-16918133D02*
X5890896Y-16908609D01*
X5890896Y-16908609D02*
X5938515Y-16908609D01*
X5938515Y-16908609D02*
X5957563Y-16918133D01*
X5957563Y-16918133D02*
X5967086Y-16927656D01*
X5967086Y-16927656D02*
X5976610Y-16946704D01*
X5976610Y-16946704D02*
X5976610Y-16965752D01*
X5976610Y-16965752D02*
X5967086Y-16994323D01*
X5967086Y-16994323D02*
X5852801Y-17108609D01*
X5852801Y-17108609D02*
X5976610Y-17108609D01*
X6214705Y-17108609D02*
X6214705Y-16908609D01*
X6300420Y-17108609D02*
X6300420Y-17003847D01*
X6300420Y-17003847D02*
X6290896Y-16984799D01*
X6290896Y-16984799D02*
X6271848Y-16975275D01*
X6271848Y-16975275D02*
X6243277Y-16975275D01*
X6243277Y-16975275D02*
X6224229Y-16984799D01*
X6224229Y-16984799D02*
X6214705Y-16994323D01*
X6424229Y-17108609D02*
X6405182Y-17099085D01*
X6405182Y-17099085D02*
X6395658Y-17089561D01*
X6395658Y-17089561D02*
X6386134Y-17070514D01*
X6386134Y-17070514D02*
X6386134Y-17013371D01*
X6386134Y-17013371D02*
X6395658Y-16994323D01*
X6395658Y-16994323D02*
X6405182Y-16984799D01*
X6405182Y-16984799D02*
X6424229Y-16975275D01*
X6424229Y-16975275D02*
X6452801Y-16975275D01*
X6452801Y-16975275D02*
X6471848Y-16984799D01*
X6471848Y-16984799D02*
X6481372Y-16994323D01*
X6481372Y-16994323D02*
X6490896Y-17013371D01*
X6490896Y-17013371D02*
X6490896Y-17070514D01*
X6490896Y-17070514D02*
X6481372Y-17089561D01*
X6481372Y-17089561D02*
X6471848Y-17099085D01*
X6471848Y-17099085D02*
X6452801Y-17108609D01*
X6452801Y-17108609D02*
X6424229Y-17108609D01*
X6605182Y-17108609D02*
X6586134Y-17099085D01*
X6586134Y-17099085D02*
X6576610Y-17080037D01*
X6576610Y-17080037D02*
X6576610Y-16908609D01*
X6757563Y-17099085D02*
X6738515Y-17108609D01*
X6738515Y-17108609D02*
X6700420Y-17108609D01*
X6700420Y-17108609D02*
X6681372Y-17099085D01*
X6681372Y-17099085D02*
X6671848Y-17080037D01*
X6671848Y-17080037D02*
X6671848Y-17003847D01*
X6671848Y-17003847D02*
X6681372Y-16984799D01*
X6681372Y-16984799D02*
X6700420Y-16975275D01*
X6700420Y-16975275D02*
X6738515Y-16975275D01*
X6738515Y-16975275D02*
X6757563Y-16984799D01*
X6757563Y-16984799D02*
X6767086Y-17003847D01*
X6767086Y-17003847D02*
X6767086Y-17022895D01*
X6767086Y-17022895D02*
X6671848Y-17041942D01*
X6843277Y-17099085D02*
X6862325Y-17108609D01*
X6862325Y-17108609D02*
X6900420Y-17108609D01*
X6900420Y-17108609D02*
X6919467Y-17099085D01*
X6919467Y-17099085D02*
X6928991Y-17080037D01*
X6928991Y-17080037D02*
X6928991Y-17070514D01*
X6928991Y-17070514D02*
X6919467Y-17051466D01*
X6919467Y-17051466D02*
X6900420Y-17041942D01*
X6900420Y-17041942D02*
X6871848Y-17041942D01*
X6871848Y-17041942D02*
X6852801Y-17032418D01*
X6852801Y-17032418D02*
X6843277Y-17013371D01*
X6843277Y-17013371D02*
X6843277Y-17003847D01*
X6843277Y-17003847D02*
X6852801Y-16984799D01*
X6852801Y-16984799D02*
X6871848Y-16975275D01*
X6871848Y-16975275D02*
X6900420Y-16975275D01*
X6900420Y-16975275D02*
X6919467Y-16984799D01*
X6995658Y-17184799D02*
X7005182Y-17175275D01*
X7005182Y-17175275D02*
X7024229Y-17146704D01*
X7024229Y-17146704D02*
X7033753Y-17127656D01*
X7033753Y-17127656D02*
X7043277Y-17099085D01*
X7043277Y-17099085D02*
X7052801Y-17051466D01*
X7052801Y-17051466D02*
X7052801Y-17013371D01*
X7052801Y-17013371D02*
X7043277Y-16965752D01*
X7043277Y-16965752D02*
X7033753Y-16937180D01*
X7033753Y-16937180D02*
X7024229Y-16918133D01*
X7024229Y-16918133D02*
X7005182Y-16889561D01*
X7005182Y-16889561D02*
X6995658Y-16880037D01*
X7357563Y-17184799D02*
X7348039Y-17175275D01*
X7348039Y-17175275D02*
X7328991Y-17146704D01*
X7328991Y-17146704D02*
X7319467Y-17127656D01*
X7319467Y-17127656D02*
X7309944Y-17099085D01*
X7309944Y-17099085D02*
X7300420Y-17051466D01*
X7300420Y-17051466D02*
X7300420Y-17013371D01*
X7300420Y-17013371D02*
X7309944Y-16965752D01*
X7309944Y-16965752D02*
X7319467Y-16937180D01*
X7319467Y-16937180D02*
X7328991Y-16918133D01*
X7328991Y-16918133D02*
X7348039Y-16889561D01*
X7348039Y-16889561D02*
X7357563Y-16880037D01*
X7433753Y-16975275D02*
X7433753Y-17108609D01*
X7433753Y-16994323D02*
X7443277Y-16984799D01*
X7443277Y-16984799D02*
X7462325Y-16975275D01*
X7462325Y-16975275D02*
X7490896Y-16975275D01*
X7490896Y-16975275D02*
X7509944Y-16984799D01*
X7509944Y-16984799D02*
X7519467Y-17003847D01*
X7519467Y-17003847D02*
X7519467Y-17108609D01*
X7643277Y-17108609D02*
X7624229Y-17099085D01*
X7624229Y-17099085D02*
X7614706Y-17089561D01*
X7614706Y-17089561D02*
X7605182Y-17070514D01*
X7605182Y-17070514D02*
X7605182Y-17013371D01*
X7605182Y-17013371D02*
X7614706Y-16994323D01*
X7614706Y-16994323D02*
X7624229Y-16984799D01*
X7624229Y-16984799D02*
X7643277Y-16975275D01*
X7643277Y-16975275D02*
X7671848Y-16975275D01*
X7671848Y-16975275D02*
X7690896Y-16984799D01*
X7690896Y-16984799D02*
X7700420Y-16994323D01*
X7700420Y-16994323D02*
X7709944Y-17013371D01*
X7709944Y-17013371D02*
X7709944Y-17070514D01*
X7709944Y-17070514D02*
X7700420Y-17089561D01*
X7700420Y-17089561D02*
X7690896Y-17099085D01*
X7690896Y-17099085D02*
X7671848Y-17108609D01*
X7671848Y-17108609D02*
X7643277Y-17108609D01*
X7767087Y-16975275D02*
X7843277Y-16975275D01*
X7795658Y-16908609D02*
X7795658Y-17080037D01*
X7795658Y-17080037D02*
X7805182Y-17099085D01*
X7805182Y-17099085D02*
X7824229Y-17108609D01*
X7824229Y-17108609D02*
X7843277Y-17108609D01*
X8062325Y-16975275D02*
X8062325Y-17175275D01*
X8062325Y-16984799D02*
X8081372Y-16975275D01*
X8081372Y-16975275D02*
X8119468Y-16975275D01*
X8119468Y-16975275D02*
X8138515Y-16984799D01*
X8138515Y-16984799D02*
X8148039Y-16994323D01*
X8148039Y-16994323D02*
X8157563Y-17013371D01*
X8157563Y-17013371D02*
X8157563Y-17070514D01*
X8157563Y-17070514D02*
X8148039Y-17089561D01*
X8148039Y-17089561D02*
X8138515Y-17099085D01*
X8138515Y-17099085D02*
X8119468Y-17108609D01*
X8119468Y-17108609D02*
X8081372Y-17108609D01*
X8081372Y-17108609D02*
X8062325Y-17099085D01*
X8271848Y-17108609D02*
X8252801Y-17099085D01*
X8252801Y-17099085D02*
X8243277Y-17080037D01*
X8243277Y-17080037D02*
X8243277Y-16908609D01*
X8433753Y-17108609D02*
X8433753Y-17003847D01*
X8433753Y-17003847D02*
X8424230Y-16984799D01*
X8424230Y-16984799D02*
X8405182Y-16975275D01*
X8405182Y-16975275D02*
X8367087Y-16975275D01*
X8367087Y-16975275D02*
X8348039Y-16984799D01*
X8433753Y-17099085D02*
X8414706Y-17108609D01*
X8414706Y-17108609D02*
X8367087Y-17108609D01*
X8367087Y-17108609D02*
X8348039Y-17099085D01*
X8348039Y-17099085D02*
X8338515Y-17080037D01*
X8338515Y-17080037D02*
X8338515Y-17060990D01*
X8338515Y-17060990D02*
X8348039Y-17041942D01*
X8348039Y-17041942D02*
X8367087Y-17032418D01*
X8367087Y-17032418D02*
X8414706Y-17032418D01*
X8414706Y-17032418D02*
X8433753Y-17022895D01*
X8500420Y-16975275D02*
X8576610Y-16975275D01*
X8528991Y-16908609D02*
X8528991Y-17080037D01*
X8528991Y-17080037D02*
X8538515Y-17099085D01*
X8538515Y-17099085D02*
X8557563Y-17108609D01*
X8557563Y-17108609D02*
X8576610Y-17108609D01*
X8719468Y-17099085D02*
X8700420Y-17108609D01*
X8700420Y-17108609D02*
X8662325Y-17108609D01*
X8662325Y-17108609D02*
X8643277Y-17099085D01*
X8643277Y-17099085D02*
X8633753Y-17080037D01*
X8633753Y-17080037D02*
X8633753Y-17003847D01*
X8633753Y-17003847D02*
X8643277Y-16984799D01*
X8643277Y-16984799D02*
X8662325Y-16975275D01*
X8662325Y-16975275D02*
X8700420Y-16975275D01*
X8700420Y-16975275D02*
X8719468Y-16984799D01*
X8719468Y-16984799D02*
X8728991Y-17003847D01*
X8728991Y-17003847D02*
X8728991Y-17022895D01*
X8728991Y-17022895D02*
X8633753Y-17041942D01*
X8900420Y-17108609D02*
X8900420Y-16908609D01*
X8900420Y-17099085D02*
X8881372Y-17108609D01*
X8881372Y-17108609D02*
X8843277Y-17108609D01*
X8843277Y-17108609D02*
X8824230Y-17099085D01*
X8824230Y-17099085D02*
X8814706Y-17089561D01*
X8814706Y-17089561D02*
X8805182Y-17070514D01*
X8805182Y-17070514D02*
X8805182Y-17013371D01*
X8805182Y-17013371D02*
X8814706Y-16994323D01*
X8814706Y-16994323D02*
X8824230Y-16984799D01*
X8824230Y-16984799D02*
X8843277Y-16975275D01*
X8843277Y-16975275D02*
X8881372Y-16975275D01*
X8881372Y-16975275D02*
X8900420Y-16984799D01*
X8976611Y-17184799D02*
X8986134Y-17175275D01*
X8986134Y-17175275D02*
X9005182Y-17146704D01*
X9005182Y-17146704D02*
X9014706Y-17127656D01*
X9014706Y-17127656D02*
X9024230Y-17099085D01*
X9024230Y-17099085D02*
X9033753Y-17051466D01*
X9033753Y-17051466D02*
X9033753Y-17013371D01*
X9033753Y-17013371D02*
X9024230Y-16965752D01*
X9024230Y-16965752D02*
X9014706Y-16937180D01*
X9014706Y-16937180D02*
X9005182Y-16918133D01*
X9005182Y-16918133D02*
X8986134Y-16889561D01*
X8986134Y-16889561D02*
X8976611Y-16880037D01*
X2120595Y-17237125D02*
X2120595Y-17437125D01*
X2020595Y-17337125D02*
X2220595Y-17337125D01*
X2462324Y-17228609D02*
X2586134Y-17228609D01*
X2586134Y-17228609D02*
X2519467Y-17304799D01*
X2519467Y-17304799D02*
X2548039Y-17304799D01*
X2548039Y-17304799D02*
X2567086Y-17314323D01*
X2567086Y-17314323D02*
X2576610Y-17323847D01*
X2576610Y-17323847D02*
X2586134Y-17342895D01*
X2586134Y-17342895D02*
X2586134Y-17390514D01*
X2586134Y-17390514D02*
X2576610Y-17409561D01*
X2576610Y-17409561D02*
X2567086Y-17419085D01*
X2567086Y-17419085D02*
X2548039Y-17428609D01*
X2548039Y-17428609D02*
X2490896Y-17428609D01*
X2490896Y-17428609D02*
X2471848Y-17419085D01*
X2471848Y-17419085D02*
X2462324Y-17409561D01*
X2671848Y-17409561D02*
X2681372Y-17419085D01*
X2681372Y-17419085D02*
X2671848Y-17428609D01*
X2671848Y-17428609D02*
X2662324Y-17419085D01*
X2662324Y-17419085D02*
X2671848Y-17409561D01*
X2671848Y-17409561D02*
X2671848Y-17428609D01*
X2862324Y-17228609D02*
X2767086Y-17228609D01*
X2767086Y-17228609D02*
X2757562Y-17323847D01*
X2757562Y-17323847D02*
X2767086Y-17314323D01*
X2767086Y-17314323D02*
X2786134Y-17304799D01*
X2786134Y-17304799D02*
X2833753Y-17304799D01*
X2833753Y-17304799D02*
X2852800Y-17314323D01*
X2852800Y-17314323D02*
X2862324Y-17323847D01*
X2862324Y-17323847D02*
X2871848Y-17342895D01*
X2871848Y-17342895D02*
X2871848Y-17390514D01*
X2871848Y-17390514D02*
X2862324Y-17409561D01*
X2862324Y-17409561D02*
X2852800Y-17419085D01*
X2852800Y-17419085D02*
X2833753Y-17428609D01*
X2833753Y-17428609D02*
X2786134Y-17428609D01*
X2786134Y-17428609D02*
X2767086Y-17419085D01*
X2767086Y-17419085D02*
X2757562Y-17409561D01*
X2995657Y-17228609D02*
X3014705Y-17228609D01*
X3014705Y-17228609D02*
X3033753Y-17238133D01*
X3033753Y-17238133D02*
X3043277Y-17247656D01*
X3043277Y-17247656D02*
X3052800Y-17266704D01*
X3052800Y-17266704D02*
X3062324Y-17304799D01*
X3062324Y-17304799D02*
X3062324Y-17352418D01*
X3062324Y-17352418D02*
X3052800Y-17390514D01*
X3052800Y-17390514D02*
X3043277Y-17409561D01*
X3043277Y-17409561D02*
X3033753Y-17419085D01*
X3033753Y-17419085D02*
X3014705Y-17428609D01*
X3014705Y-17428609D02*
X2995657Y-17428609D01*
X2995657Y-17428609D02*
X2976610Y-17419085D01*
X2976610Y-17419085D02*
X2967086Y-17409561D01*
X2967086Y-17409561D02*
X2957562Y-17390514D01*
X2957562Y-17390514D02*
X2948038Y-17352418D01*
X2948038Y-17352418D02*
X2948038Y-17304799D01*
X2948038Y-17304799D02*
X2957562Y-17266704D01*
X2957562Y-17266704D02*
X2967086Y-17247656D01*
X2967086Y-17247656D02*
X2976610Y-17238133D01*
X2976610Y-17238133D02*
X2995657Y-17228609D01*
X3186134Y-17228609D02*
X3205181Y-17228609D01*
X3205181Y-17228609D02*
X3224229Y-17238133D01*
X3224229Y-17238133D02*
X3233753Y-17247656D01*
X3233753Y-17247656D02*
X3243277Y-17266704D01*
X3243277Y-17266704D02*
X3252800Y-17304799D01*
X3252800Y-17304799D02*
X3252800Y-17352418D01*
X3252800Y-17352418D02*
X3243277Y-17390514D01*
X3243277Y-17390514D02*
X3233753Y-17409561D01*
X3233753Y-17409561D02*
X3224229Y-17419085D01*
X3224229Y-17419085D02*
X3205181Y-17428609D01*
X3205181Y-17428609D02*
X3186134Y-17428609D01*
X3186134Y-17428609D02*
X3167086Y-17419085D01*
X3167086Y-17419085D02*
X3157562Y-17409561D01*
X3157562Y-17409561D02*
X3148038Y-17390514D01*
X3148038Y-17390514D02*
X3138515Y-17352418D01*
X3138515Y-17352418D02*
X3138515Y-17304799D01*
X3138515Y-17304799D02*
X3148038Y-17266704D01*
X3148038Y-17266704D02*
X3157562Y-17247656D01*
X3157562Y-17247656D02*
X3167086Y-17238133D01*
X3167086Y-17238133D02*
X3186134Y-17228609D01*
X3338515Y-17428609D02*
X3338515Y-17295275D01*
X3338515Y-17314323D02*
X3348038Y-17304799D01*
X3348038Y-17304799D02*
X3367086Y-17295275D01*
X3367086Y-17295275D02*
X3395658Y-17295275D01*
X3395658Y-17295275D02*
X3414705Y-17304799D01*
X3414705Y-17304799D02*
X3424229Y-17323847D01*
X3424229Y-17323847D02*
X3424229Y-17428609D01*
X3424229Y-17323847D02*
X3433753Y-17304799D01*
X3433753Y-17304799D02*
X3452800Y-17295275D01*
X3452800Y-17295275D02*
X3481372Y-17295275D01*
X3481372Y-17295275D02*
X3500419Y-17304799D01*
X3500419Y-17304799D02*
X3509943Y-17323847D01*
X3509943Y-17323847D02*
X3509943Y-17428609D01*
X3605181Y-17428609D02*
X3605181Y-17295275D01*
X3605181Y-17314323D02*
X3614705Y-17304799D01*
X3614705Y-17304799D02*
X3633753Y-17295275D01*
X3633753Y-17295275D02*
X3662324Y-17295275D01*
X3662324Y-17295275D02*
X3681372Y-17304799D01*
X3681372Y-17304799D02*
X3690896Y-17323847D01*
X3690896Y-17323847D02*
X3690896Y-17428609D01*
X3690896Y-17323847D02*
X3700419Y-17304799D01*
X3700419Y-17304799D02*
X3719467Y-17295275D01*
X3719467Y-17295275D02*
X3748038Y-17295275D01*
X3748038Y-17295275D02*
X3767086Y-17304799D01*
X3767086Y-17304799D02*
X3776610Y-17323847D01*
X3776610Y-17323847D02*
X3776610Y-17428609D01*
X4167086Y-17219085D02*
X3995658Y-17476228D01*
X4424229Y-17228609D02*
X4443277Y-17228609D01*
X4443277Y-17228609D02*
X4462324Y-17238133D01*
X4462324Y-17238133D02*
X4471848Y-17247656D01*
X4471848Y-17247656D02*
X4481372Y-17266704D01*
X4481372Y-17266704D02*
X4490896Y-17304799D01*
X4490896Y-17304799D02*
X4490896Y-17352418D01*
X4490896Y-17352418D02*
X4481372Y-17390514D01*
X4481372Y-17390514D02*
X4471848Y-17409561D01*
X4471848Y-17409561D02*
X4462324Y-17419085D01*
X4462324Y-17419085D02*
X4443277Y-17428609D01*
X4443277Y-17428609D02*
X4424229Y-17428609D01*
X4424229Y-17428609D02*
X4405182Y-17419085D01*
X4405182Y-17419085D02*
X4395658Y-17409561D01*
X4395658Y-17409561D02*
X4386134Y-17390514D01*
X4386134Y-17390514D02*
X4376610Y-17352418D01*
X4376610Y-17352418D02*
X4376610Y-17304799D01*
X4376610Y-17304799D02*
X4386134Y-17266704D01*
X4386134Y-17266704D02*
X4395658Y-17247656D01*
X4395658Y-17247656D02*
X4405182Y-17238133D01*
X4405182Y-17238133D02*
X4424229Y-17228609D01*
X4576610Y-17409561D02*
X4586134Y-17419085D01*
X4586134Y-17419085D02*
X4576610Y-17428609D01*
X4576610Y-17428609D02*
X4567086Y-17419085D01*
X4567086Y-17419085D02*
X4576610Y-17409561D01*
X4576610Y-17409561D02*
X4576610Y-17428609D01*
X4776610Y-17428609D02*
X4662324Y-17428609D01*
X4719467Y-17428609D02*
X4719467Y-17228609D01*
X4719467Y-17228609D02*
X4700420Y-17257180D01*
X4700420Y-17257180D02*
X4681372Y-17276228D01*
X4681372Y-17276228D02*
X4662324Y-17285752D01*
X4843277Y-17228609D02*
X4967086Y-17228609D01*
X4967086Y-17228609D02*
X4900420Y-17304799D01*
X4900420Y-17304799D02*
X4928991Y-17304799D01*
X4928991Y-17304799D02*
X4948039Y-17314323D01*
X4948039Y-17314323D02*
X4957563Y-17323847D01*
X4957563Y-17323847D02*
X4967086Y-17342895D01*
X4967086Y-17342895D02*
X4967086Y-17390514D01*
X4967086Y-17390514D02*
X4957563Y-17409561D01*
X4957563Y-17409561D02*
X4948039Y-17419085D01*
X4948039Y-17419085D02*
X4928991Y-17428609D01*
X4928991Y-17428609D02*
X4871848Y-17428609D01*
X4871848Y-17428609D02*
X4852801Y-17419085D01*
X4852801Y-17419085D02*
X4843277Y-17409561D01*
X5033753Y-17228609D02*
X5167086Y-17228609D01*
X5167086Y-17228609D02*
X5081372Y-17428609D01*
X5271848Y-17314323D02*
X5252801Y-17304799D01*
X5252801Y-17304799D02*
X5243277Y-17295275D01*
X5243277Y-17295275D02*
X5233753Y-17276228D01*
X5233753Y-17276228D02*
X5233753Y-17266704D01*
X5233753Y-17266704D02*
X5243277Y-17247656D01*
X5243277Y-17247656D02*
X5252801Y-17238133D01*
X5252801Y-17238133D02*
X5271848Y-17228609D01*
X5271848Y-17228609D02*
X5309944Y-17228609D01*
X5309944Y-17228609D02*
X5328991Y-17238133D01*
X5328991Y-17238133D02*
X5338515Y-17247656D01*
X5338515Y-17247656D02*
X5348039Y-17266704D01*
X5348039Y-17266704D02*
X5348039Y-17276228D01*
X5348039Y-17276228D02*
X5338515Y-17295275D01*
X5338515Y-17295275D02*
X5328991Y-17304799D01*
X5328991Y-17304799D02*
X5309944Y-17314323D01*
X5309944Y-17314323D02*
X5271848Y-17314323D01*
X5271848Y-17314323D02*
X5252801Y-17323847D01*
X5252801Y-17323847D02*
X5243277Y-17333371D01*
X5243277Y-17333371D02*
X5233753Y-17352418D01*
X5233753Y-17352418D02*
X5233753Y-17390514D01*
X5233753Y-17390514D02*
X5243277Y-17409561D01*
X5243277Y-17409561D02*
X5252801Y-17419085D01*
X5252801Y-17419085D02*
X5271848Y-17428609D01*
X5271848Y-17428609D02*
X5309944Y-17428609D01*
X5309944Y-17428609D02*
X5328991Y-17419085D01*
X5328991Y-17419085D02*
X5338515Y-17409561D01*
X5338515Y-17409561D02*
X5348039Y-17390514D01*
X5348039Y-17390514D02*
X5348039Y-17352418D01*
X5348039Y-17352418D02*
X5338515Y-17333371D01*
X5338515Y-17333371D02*
X5328991Y-17323847D01*
X5328991Y-17323847D02*
X5309944Y-17314323D01*
X5424229Y-17228609D02*
X5424229Y-17266704D01*
X5500420Y-17228609D02*
X5500420Y-17266704D01*
X5795658Y-17504799D02*
X5786134Y-17495275D01*
X5786134Y-17495275D02*
X5767086Y-17466704D01*
X5767086Y-17466704D02*
X5757563Y-17447656D01*
X5757563Y-17447656D02*
X5748039Y-17419085D01*
X5748039Y-17419085D02*
X5738515Y-17371466D01*
X5738515Y-17371466D02*
X5738515Y-17333371D01*
X5738515Y-17333371D02*
X5748039Y-17285752D01*
X5748039Y-17285752D02*
X5757563Y-17257180D01*
X5757563Y-17257180D02*
X5767086Y-17238133D01*
X5767086Y-17238133D02*
X5786134Y-17209561D01*
X5786134Y-17209561D02*
X5795658Y-17200037D01*
X5976610Y-17428609D02*
X5862324Y-17428609D01*
X5919467Y-17428609D02*
X5919467Y-17228609D01*
X5919467Y-17228609D02*
X5900420Y-17257180D01*
X5900420Y-17257180D02*
X5881372Y-17276228D01*
X5881372Y-17276228D02*
X5862324Y-17285752D01*
X6214705Y-17428609D02*
X6214705Y-17228609D01*
X6300420Y-17428609D02*
X6300420Y-17323847D01*
X6300420Y-17323847D02*
X6290896Y-17304799D01*
X6290896Y-17304799D02*
X6271848Y-17295275D01*
X6271848Y-17295275D02*
X6243277Y-17295275D01*
X6243277Y-17295275D02*
X6224229Y-17304799D01*
X6224229Y-17304799D02*
X6214705Y-17314323D01*
X6424229Y-17428609D02*
X6405182Y-17419085D01*
X6405182Y-17419085D02*
X6395658Y-17409561D01*
X6395658Y-17409561D02*
X6386134Y-17390514D01*
X6386134Y-17390514D02*
X6386134Y-17333371D01*
X6386134Y-17333371D02*
X6395658Y-17314323D01*
X6395658Y-17314323D02*
X6405182Y-17304799D01*
X6405182Y-17304799D02*
X6424229Y-17295275D01*
X6424229Y-17295275D02*
X6452801Y-17295275D01*
X6452801Y-17295275D02*
X6471848Y-17304799D01*
X6471848Y-17304799D02*
X6481372Y-17314323D01*
X6481372Y-17314323D02*
X6490896Y-17333371D01*
X6490896Y-17333371D02*
X6490896Y-17390514D01*
X6490896Y-17390514D02*
X6481372Y-17409561D01*
X6481372Y-17409561D02*
X6471848Y-17419085D01*
X6471848Y-17419085D02*
X6452801Y-17428609D01*
X6452801Y-17428609D02*
X6424229Y-17428609D01*
X6605182Y-17428609D02*
X6586134Y-17419085D01*
X6586134Y-17419085D02*
X6576610Y-17400037D01*
X6576610Y-17400037D02*
X6576610Y-17228609D01*
X6757563Y-17419085D02*
X6738515Y-17428609D01*
X6738515Y-17428609D02*
X6700420Y-17428609D01*
X6700420Y-17428609D02*
X6681372Y-17419085D01*
X6681372Y-17419085D02*
X6671848Y-17400037D01*
X6671848Y-17400037D02*
X6671848Y-17323847D01*
X6671848Y-17323847D02*
X6681372Y-17304799D01*
X6681372Y-17304799D02*
X6700420Y-17295275D01*
X6700420Y-17295275D02*
X6738515Y-17295275D01*
X6738515Y-17295275D02*
X6757563Y-17304799D01*
X6757563Y-17304799D02*
X6767086Y-17323847D01*
X6767086Y-17323847D02*
X6767086Y-17342895D01*
X6767086Y-17342895D02*
X6671848Y-17361942D01*
X6833753Y-17504799D02*
X6843277Y-17495275D01*
X6843277Y-17495275D02*
X6862325Y-17466704D01*
X6862325Y-17466704D02*
X6871848Y-17447656D01*
X6871848Y-17447656D02*
X6881372Y-17419085D01*
X6881372Y-17419085D02*
X6890896Y-17371466D01*
X6890896Y-17371466D02*
X6890896Y-17333371D01*
X6890896Y-17333371D02*
X6881372Y-17285752D01*
X6881372Y-17285752D02*
X6871848Y-17257180D01*
X6871848Y-17257180D02*
X6862325Y-17238133D01*
X6862325Y-17238133D02*
X6843277Y-17209561D01*
X6843277Y-17209561D02*
X6833753Y-17200037D01*
X7195658Y-17504799D02*
X7186134Y-17495275D01*
X7186134Y-17495275D02*
X7167086Y-17466704D01*
X7167086Y-17466704D02*
X7157563Y-17447656D01*
X7157563Y-17447656D02*
X7148039Y-17419085D01*
X7148039Y-17419085D02*
X7138515Y-17371466D01*
X7138515Y-17371466D02*
X7138515Y-17333371D01*
X7138515Y-17333371D02*
X7148039Y-17285752D01*
X7148039Y-17285752D02*
X7157563Y-17257180D01*
X7157563Y-17257180D02*
X7167086Y-17238133D01*
X7167086Y-17238133D02*
X7186134Y-17209561D01*
X7186134Y-17209561D02*
X7195658Y-17200037D01*
X7271848Y-17295275D02*
X7271848Y-17428609D01*
X7271848Y-17314323D02*
X7281372Y-17304799D01*
X7281372Y-17304799D02*
X7300420Y-17295275D01*
X7300420Y-17295275D02*
X7328991Y-17295275D01*
X7328991Y-17295275D02*
X7348039Y-17304799D01*
X7348039Y-17304799D02*
X7357563Y-17323847D01*
X7357563Y-17323847D02*
X7357563Y-17428609D01*
X7481372Y-17428609D02*
X7462325Y-17419085D01*
X7462325Y-17419085D02*
X7452801Y-17409561D01*
X7452801Y-17409561D02*
X7443277Y-17390514D01*
X7443277Y-17390514D02*
X7443277Y-17333371D01*
X7443277Y-17333371D02*
X7452801Y-17314323D01*
X7452801Y-17314323D02*
X7462325Y-17304799D01*
X7462325Y-17304799D02*
X7481372Y-17295275D01*
X7481372Y-17295275D02*
X7509944Y-17295275D01*
X7509944Y-17295275D02*
X7528991Y-17304799D01*
X7528991Y-17304799D02*
X7538515Y-17314323D01*
X7538515Y-17314323D02*
X7548039Y-17333371D01*
X7548039Y-17333371D02*
X7548039Y-17390514D01*
X7548039Y-17390514D02*
X7538515Y-17409561D01*
X7538515Y-17409561D02*
X7528991Y-17419085D01*
X7528991Y-17419085D02*
X7509944Y-17428609D01*
X7509944Y-17428609D02*
X7481372Y-17428609D01*
X7605182Y-17295275D02*
X7681372Y-17295275D01*
X7633753Y-17228609D02*
X7633753Y-17400037D01*
X7633753Y-17400037D02*
X7643277Y-17419085D01*
X7643277Y-17419085D02*
X7662325Y-17428609D01*
X7662325Y-17428609D02*
X7681372Y-17428609D01*
X7900420Y-17295275D02*
X7900420Y-17495275D01*
X7900420Y-17304799D02*
X7919467Y-17295275D01*
X7919467Y-17295275D02*
X7957563Y-17295275D01*
X7957563Y-17295275D02*
X7976610Y-17304799D01*
X7976610Y-17304799D02*
X7986134Y-17314323D01*
X7986134Y-17314323D02*
X7995658Y-17333371D01*
X7995658Y-17333371D02*
X7995658Y-17390514D01*
X7995658Y-17390514D02*
X7986134Y-17409561D01*
X7986134Y-17409561D02*
X7976610Y-17419085D01*
X7976610Y-17419085D02*
X7957563Y-17428609D01*
X7957563Y-17428609D02*
X7919467Y-17428609D01*
X7919467Y-17428609D02*
X7900420Y-17419085D01*
X8109944Y-17428609D02*
X8090896Y-17419085D01*
X8090896Y-17419085D02*
X8081372Y-17400037D01*
X8081372Y-17400037D02*
X8081372Y-17228609D01*
X8271848Y-17428609D02*
X8271848Y-17323847D01*
X8271848Y-17323847D02*
X8262325Y-17304799D01*
X8262325Y-17304799D02*
X8243277Y-17295275D01*
X8243277Y-17295275D02*
X8205182Y-17295275D01*
X8205182Y-17295275D02*
X8186134Y-17304799D01*
X8271848Y-17419085D02*
X8252801Y-17428609D01*
X8252801Y-17428609D02*
X8205182Y-17428609D01*
X8205182Y-17428609D02*
X8186134Y-17419085D01*
X8186134Y-17419085D02*
X8176610Y-17400037D01*
X8176610Y-17400037D02*
X8176610Y-17380990D01*
X8176610Y-17380990D02*
X8186134Y-17361942D01*
X8186134Y-17361942D02*
X8205182Y-17352418D01*
X8205182Y-17352418D02*
X8252801Y-17352418D01*
X8252801Y-17352418D02*
X8271848Y-17342895D01*
X8338515Y-17295275D02*
X8414706Y-17295275D01*
X8367087Y-17228609D02*
X8367087Y-17400037D01*
X8367087Y-17400037D02*
X8376610Y-17419085D01*
X8376610Y-17419085D02*
X8395658Y-17428609D01*
X8395658Y-17428609D02*
X8414706Y-17428609D01*
X8557563Y-17419085D02*
X8538515Y-17428609D01*
X8538515Y-17428609D02*
X8500420Y-17428609D01*
X8500420Y-17428609D02*
X8481372Y-17419085D01*
X8481372Y-17419085D02*
X8471849Y-17400037D01*
X8471849Y-17400037D02*
X8471849Y-17323847D01*
X8471849Y-17323847D02*
X8481372Y-17304799D01*
X8481372Y-17304799D02*
X8500420Y-17295275D01*
X8500420Y-17295275D02*
X8538515Y-17295275D01*
X8538515Y-17295275D02*
X8557563Y-17304799D01*
X8557563Y-17304799D02*
X8567087Y-17323847D01*
X8567087Y-17323847D02*
X8567087Y-17342895D01*
X8567087Y-17342895D02*
X8471849Y-17361942D01*
X8738515Y-17428609D02*
X8738515Y-17228609D01*
X8738515Y-17419085D02*
X8719468Y-17428609D01*
X8719468Y-17428609D02*
X8681372Y-17428609D01*
X8681372Y-17428609D02*
X8662325Y-17419085D01*
X8662325Y-17419085D02*
X8652801Y-17409561D01*
X8652801Y-17409561D02*
X8643277Y-17390514D01*
X8643277Y-17390514D02*
X8643277Y-17333371D01*
X8643277Y-17333371D02*
X8652801Y-17314323D01*
X8652801Y-17314323D02*
X8662325Y-17304799D01*
X8662325Y-17304799D02*
X8681372Y-17295275D01*
X8681372Y-17295275D02*
X8719468Y-17295275D01*
X8719468Y-17295275D02*
X8738515Y-17304799D01*
X8814706Y-17504799D02*
X8824230Y-17495275D01*
X8824230Y-17495275D02*
X8843277Y-17466704D01*
X8843277Y-17466704D02*
X8852801Y-17447656D01*
X8852801Y-17447656D02*
X8862325Y-17419085D01*
X8862325Y-17419085D02*
X8871849Y-17371466D01*
X8871849Y-17371466D02*
X8871849Y-17333371D01*
X8871849Y-17333371D02*
X8862325Y-17285752D01*
X8862325Y-17285752D02*
X8852801Y-17257180D01*
X8852801Y-17257180D02*
X8843277Y-17238133D01*
X8843277Y-17238133D02*
X8824230Y-17209561D01*
X8824230Y-17209561D02*
X8814706Y-17200037D01*
M02*
