M48
; DRILL file {KiCad 9.0.2} date 2025-09-27T17:57:00+0100
; FORMAT={-:-/ absolute / metric / decimal}
; #@! TF.CreationDate,2025-09-27T17:57:00+01:00
; #@! TF.GenerationSoftware,Kicad,Pcbnew,9.0.2
; #@! TF.FileFunction,Plated,1,4,PTH
FMAT,2
METRIC
; #@! TA.AperFunction,Plated,PTH,ViaDrill
T1C0.300
; #@! TA.AperFunction,Plated,PTH,ComponentDrill
T2C0.400
; #@! TA.AperFunction,Plated,PTH,ComponentDrill
T3C0.500
; #@! TA.AperFunction,Plated,PTH,ComponentDrill
T4C0.550
; #@! TA.AperFunction,Plated,PTH,ComponentDrill
T5C0.600
; #@! TA.AperFunction,Plated,PTH,ComponentDrill
T6C0.750
; #@! TA.AperFunction,Plated,PTH,ComponentDrill
T7C0.800
; #@! TA.AperFunction,Plated,PTH,ComponentDrill
T8C0.850
; #@! TA.AperFunction,Plated,PTH,ComponentDrill
T9C0.900
; #@! TA.AperFunction,Plated,PTH,ComponentDrill
T10C1.000
; #@! TA.AperFunction,Plated,PTH,ComponentDrill
T11C1.100
; #@! TA.AperFunction,Plated,PTH,ComponentDrill
T12C1.520
; #@! TA.AperFunction,Plated,PTH,ComponentDrill
T13C2.000
; #@! TA.AperFunction,Plated,PTH,ComponentDrill
T14C2.700
; #@! TA.AperFunction,Plated,PTH,ComponentDrill
T15C4.000
%
G90
G05
T1
X32.385Y-79.172
X40.796Y-118.745
X45.237Y-145.339
X49.651Y-84.33
X49.946Y-120.95
X51.096Y-144.899
X53.34Y-52.375
X61.443Y-132.436
X62.433Y-38.506
X63.221Y-133.129
X63.475Y-159.41
X63.808Y-118.593
X67.285Y-109.296
X67.767Y-125.755
X68.758Y-127.533
X69.456Y-132.017
X70.637Y-136.855
X71.171Y-74.193
X71.488Y-139.916
X71.617Y-40.361
X72.974Y-74.473
X73.355Y-76.124
X73.381Y-117.119
X73.917Y-34.061
X73.917Y-40.411
X74.016Y-100.533
X74.016Y-106.833
X74.863Y-111.455
X75.311Y-129.438
X75.641Y-98.654
X76.316Y-106.833
X76.581Y-125.755
X78.13Y-37.516
X78.486Y-103.175
X81.077Y-98.476
X81.407Y-131.724
X81.596Y-106.833
X81.864Y-134.087
X82.003Y-72.441
X83.668Y-124.943
X83.896Y-106.833
X84.303Y-66.141
X84.303Y-72.441
X84.334Y-89.673
X84.67Y-40.437
X86.603Y-72.441
X86.608Y-88.723
X89.154Y-81.686
X90.219Y-40.412
X90.627Y-85.903
X92.519Y-37.795
X93.904Y-53.365
X94.056Y-95.225
X95.25Y-120.167
X96.469Y-58.928
X96.749Y-111.15
X97.431Y-118.307
X102.489Y-84.455
X106.477Y-80.924
X106.705Y-142.9
X106.705Y-151.943
X107.29Y-114.605
X107.671Y-138.024
X107.721Y-140.513
X108.991Y-79.604
X109.22Y-122.403
X110.37Y-61.747
X111.201Y-76.2
X111.303Y-137.262
X111.495Y-67.945
X111.836Y-95.199
X112.166Y-62.865
X112.42Y-60.02
X112.42Y-75.082
X112.471Y-147.218
X112.928Y-61.747
X113.055Y-66.218
X113.182Y-127.533
X113.309Y-64.033
X113.589Y-156.972
X113.652Y-60.566
X113.69Y-53.95
X113.776Y-59.165
X115.341Y-79.781
X115.545Y-69.52
X115.773Y-31.547
X116.027Y-93.878
X116.586Y-31.826
X116.713Y-64.58
X116.764Y-67.005
X117.119Y-60.376
X117.158Y-55.753
X117.434Y-31.115
X117.881Y-118.034
X118.389Y-59.004
X118.593Y-115.214
X118.857Y-55.418
X119.228Y-60.757
X119.507Y-116.916
X119.634Y-66.142
X119.736Y-64.222
X120.091Y-137.668
X120.117Y-132.258
X120.244Y-59.157
X120.625Y-55.22
X120.98Y-62.205
X121.26Y-157.193
X121.387Y-73.254
X121.425Y-60.795
X121.615Y-67.158
X121.628Y-27.978
X121.691Y-122.758
X121.869Y-65.837
X122.232Y-148.26
X122.377Y-74.778
X122.458Y-71.425
X122.53Y-139.573
X122.682Y-59.868
X122.987Y-52.578
X123.012Y-55.92
X123.088Y-26.568
X123.088Y-64.161
X123.419Y-73.457
X123.431Y-67.12
X123.659Y-60.731
X123.749Y-112.649
X124.511Y-140.792
X124.908Y-68.834
X125.07Y-64.872
X125.12Y-63.525
X125.146Y-126.822
X125.571Y-128.829
X125.832Y-110.236
X127.025Y-69.19
X127.376Y-71.445
X128.092Y-25.4
X128.132Y-66.218
X129.159Y-68.301
X129.4Y-63.792
X129.997Y-58.952
X130.48Y-156.083
X130.888Y-152.195
X132.791Y-89.357
X133.375Y-105.232
X135.15Y-89.59
X137.084Y-158.496
X137.541Y-67.081
X137.669Y-105.449
X138.849Y-134.81
X139.548Y-117.264
X139.624Y-60.757
X140.081Y-125.095
X140.26Y-106.529
X140.386Y-71.73
X140.714Y-156.521
X141.605Y-70.841
X142.24Y-111.074
X142.862Y-96.589
X143.535Y-94.59
X143.791Y-99.306
X144.137Y-91.887
X144.386Y-156.756
X144.679Y-98.146
X144.983Y-137.414
X145.778Y-141.351
X145.796Y-119.329
X146.126Y-132.639
X146.152Y-88.655
X146.355Y-135.382
X146.888Y-156.616
X147.041Y-99.974
X147.142Y-59.106
X147.439Y-91.801
X147.574Y-131.043
X148.234Y-124.485
X148.317Y-143.51
X148.692Y-96.19
X148.736Y-89.447
X148.736Y-91.694
X148.92Y-138.684
X148.971Y-126.67
X149.504Y-118.364
X149.682Y-53.467
X149.922Y-92.855
X150.021Y-99.858
X150.022Y-96.469
X150.39Y-88.443
X150.825Y-52.375
X150.901Y-121.006
X151.511Y-92.855
X152.236Y-91.724
X152.695Y-43.739
X152.859Y-116.027
X153.518Y-103.607
X153.721Y-135.933
X154.432Y-130.005
X154.697Y-88.039
X154.813Y-104.369
X155.189Y-116.376
X155.956Y-91.592
X157.074Y-92.634
X157.302Y-117.78
X158.305Y-47.371
X160.299Y-95.936
X160.477Y-137.033
X160.63Y-120.091
X162.597Y-47.371
X164.363Y-69.621
X165.583Y-126.543
X167.64Y-85.115
X167.843Y-129.616
X168.453Y-104.419
X170.129Y-61.29
X170.612Y-127.711
X172.923Y-85.496
X174.028Y-136.563
X175.073Y-84.522
X175.944Y-122.422
X179.273Y-83.922
X179.857Y-71.577
X182.626Y-132.047
X182.728Y-113.556
X187.046Y-86.335
X188.062Y-53.924
X189.078Y-71.78
X192.253Y-37.787
X192.253Y-40.087
X193.395Y-110.121
X195.707Y-107.95
X205.943Y-86.411
X208.153Y-122.606
X209.093Y-116.383
X210.312Y-46.105
X211.004Y-79.479
X212.531Y-41.459
X213.563Y-49.428
X219.405Y-48.59
X221.412Y-41.637
X221.957Y-55.398
X224.194Y-120.603
X224.206Y-92.329
X224.212Y-83.99
X224.257Y-49.098
X224.257Y-55.398
X242.938Y-92.579
X251.866Y-52.807
T2
X125.952Y-27.428
X125.952Y-28.778
X126.802Y-27.428
X126.802Y-28.778
X127.652Y-27.428
X127.652Y-28.778
X128.502Y-27.428
X128.502Y-28.778
X129.352Y-27.428
X129.352Y-28.778
X130.202Y-27.428
X130.202Y-28.778
X131.052Y-27.428
X131.052Y-28.778
X131.902Y-27.428
X131.902Y-28.778
T3
X26.024Y-153.264
X26.617Y-151.832
X26.617Y-154.695
X27.065Y-24.867
X27.658Y-23.435
X27.658Y-26.298
X28.049Y-151.239
X28.049Y-155.289
X29.09Y-22.842
X29.09Y-26.892
X29.48Y-151.832
X29.48Y-154.695
X30.074Y-153.264
X30.522Y-23.435
X30.522Y-26.298
X31.115Y-24.867
X83.192Y-95.555
X83.785Y-94.123
X83.785Y-96.987
X85.217Y-93.53
X85.217Y-97.58
X86.649Y-94.123
X86.649Y-96.987
X87.242Y-95.555
X181.917Y-24.994
X182.511Y-23.562
X182.511Y-26.425
X183.942Y-22.969
X183.942Y-27.019
X184.005Y-98.704
X184.598Y-97.273
X184.598Y-100.136
X185.374Y-23.562
X185.374Y-26.425
X185.967Y-24.994
X186.03Y-96.679
X186.03Y-100.729
X187.461Y-97.273
X187.461Y-100.136
X188.055Y-98.704
X213.926Y-24.994
X213.926Y-98.374
X214.519Y-23.562
X214.519Y-26.425
X214.519Y-96.942
X214.519Y-99.806
X215.951Y-22.969
X215.951Y-27.019
X215.951Y-96.349
X215.951Y-100.399
X217.383Y-23.562
X217.383Y-26.425
X217.383Y-96.942
X217.383Y-99.806
X217.976Y-24.994
X217.976Y-98.374
X251.864Y-24.994
X251.864Y-98.374
X252.457Y-23.562
X252.457Y-26.425
X252.457Y-96.942
X252.457Y-99.806
X253.889Y-22.969
X253.889Y-27.019
X253.889Y-96.349
X253.889Y-100.399
X254.236Y-153.511
X254.829Y-152.079
X254.829Y-154.942
X255.321Y-23.562
X255.321Y-26.425
X255.321Y-96.942
X255.321Y-99.806
X255.914Y-24.994
X255.914Y-98.374
X256.261Y-151.486
X256.261Y-155.536
X257.692Y-152.079
X257.692Y-154.942
X258.286Y-153.511
T6
X32.741Y-39.425
X34.519Y-39.425
X36.347Y-39.425
X37.035Y-69.583
X38.813Y-69.583
X39.137Y-103.327
X39.137Y-105.105
X39.137Y-106.934
X40.641Y-69.583
X68.169Y-77.953
X68.169Y-79.731
X68.169Y-81.559
X68.174Y-83.845
X68.174Y-85.623
X68.174Y-87.452
X68.761Y-117.958
X68.761Y-119.736
X68.761Y-121.564
X68.783Y-111.608
X68.783Y-113.386
X68.783Y-115.214
X68.974Y-51.791
X68.974Y-53.569
X68.974Y-55.397
X69.025Y-45.415
X69.025Y-47.193
X69.025Y-49.022
X73.304Y-79.98
X73.304Y-85.242
X73.663Y-114.194
X73.663Y-119.736
X73.812Y-47.875
X73.812Y-53.005
X75.133Y-79.98
X75.133Y-85.242
X75.492Y-114.194
X75.492Y-119.736
X75.641Y-47.875
X75.641Y-53.005
X76.911Y-79.98
X76.911Y-85.242
X77.27Y-114.194
X77.27Y-119.736
X77.419Y-47.875
X77.419Y-53.005
X190.913Y-83.532
X190.913Y-85.31
X190.913Y-87.139
X191.616Y-120.895
X191.616Y-122.673
X191.616Y-124.502
X191.668Y-50.267
X191.668Y-52.045
X191.668Y-53.873
X195.841Y-83.532
X195.841Y-85.31
X195.841Y-87.139
X196.469Y-50.241
X196.469Y-52.019
X196.469Y-53.848
X196.543Y-120.895
X196.543Y-122.673
X196.543Y-124.502
X201.789Y-83.482
X201.789Y-85.31
X201.789Y-87.088
X202.163Y-50.063
X202.163Y-51.892
X202.163Y-53.67
X202.491Y-120.794
X202.491Y-122.622
X202.491Y-124.4
X211.836Y-56.195
X212.242Y-127.152
X212.376Y-89.531
X213.614Y-56.195
X214.02Y-127.152
X214.154Y-89.531
X215.443Y-56.195
X215.849Y-127.152
X215.983Y-89.531
X233.274Y-89.408
X233.909Y-51.537
X235.052Y-89.408
X235.084Y-120.844
X235.687Y-51.537
X236.862Y-120.844
X236.88Y-89.408
X237.515Y-51.537
X238.691Y-120.844
T7
X27.0Y-100.609
X28.423Y-65.126
X29.235Y-109.779
X29.667Y-43.231
X29.999Y-74.054
X35.992Y-35.077
X37.16Y-100.609
X38.583Y-65.126
X39.395Y-109.779
X39.827Y-43.231
X40.159Y-74.054
X42.774Y-38.767
X42.774Y-42.621
X43.612Y-65.964
X43.739Y-69.647
X43.942Y-100.127
X43.967Y-104.419
X46.152Y-35.077
X52.934Y-38.767
X52.934Y-42.621
X53.772Y-65.964
X53.899Y-69.647
X54.102Y-100.127
X54.127Y-104.419
X63.219Y-76.505
X63.219Y-86.665
X63.629Y-110.922
X63.629Y-121.082
X63.779Y-44.907
X63.779Y-55.067
X80.162Y-76.149
X80.162Y-86.309
X80.572Y-109.982
X80.572Y-120.142
X80.874Y-138.455
X80.874Y-148.615
X81.382Y-45.242
X81.382Y-55.402
X84.023Y-80.569
X84.028Y-76.411
X84.379Y-115.646
X84.446Y-85.573
X84.489Y-111.48
X84.988Y-138.414
X84.988Y-148.574
X85.42Y-44.882
X85.446Y-49.149
X88.798Y-89.535
X94.183Y-80.569
X94.188Y-76.411
X94.539Y-115.646
X94.606Y-85.573
X94.649Y-111.48
X95.58Y-44.882
X95.606Y-49.149
X98.958Y-89.535
X102.26Y-44.75
X102.26Y-54.91
X102.743Y-110.031
X102.743Y-120.191
X104.648Y-142.646
X104.648Y-147.646
X106.858Y-44.75
X106.858Y-54.91
X107.34Y-110.031
X107.34Y-120.191
X110.185Y-146.888
X110.185Y-151.888
X112.09Y-36.525
X112.141Y-39.776
X118.77Y-107.62
X118.77Y-112.62
X119.405Y-53.518
X122.25Y-36.525
X122.301Y-39.776
X123.571Y-102.961
X123.571Y-107.961
X124.054Y-121.412
X124.054Y-131.572
X124.333Y-146.637
X124.333Y-151.517
X124.405Y-53.518
X126.492Y-30.937
X126.492Y-41.097
X129.159Y-120.426
X129.159Y-122.966
X129.159Y-125.506
X129.159Y-128.046
X129.159Y-130.586
X129.159Y-133.126
X129.159Y-135.666
X129.159Y-138.206
X129.159Y-140.746
X129.159Y-143.286
X129.159Y-145.826
X129.159Y-148.366
X129.159Y-150.906
X129.159Y-153.446
X129.976Y-60.554
X130.48Y-30.988
X130.48Y-41.148
X131.191Y-55.804
X134.976Y-60.554
X136.071Y-55.804
X136.779Y-120.426
X136.779Y-122.966
X136.779Y-125.506
X136.779Y-128.046
X136.779Y-130.586
X136.779Y-133.126
X136.779Y-135.666
X136.779Y-138.206
X136.779Y-140.746
X136.779Y-143.286
X136.779Y-145.826
X136.779Y-148.366
X136.779Y-150.906
X136.779Y-153.446
X138.1Y-25.959
X140.538Y-91.769
X140.538Y-96.649
X142.596Y-54.284
X142.596Y-59.284
X147.639Y-49.581
X148.26Y-25.959
X152.639Y-49.581
X158.561Y-59.69
X160.934Y-91.846
X160.934Y-102.006
X163.561Y-59.69
X165.608Y-141.453
X165.608Y-151.613
X175.144Y-80.357
X175.144Y-88.384
X176.124Y-46.838
X176.124Y-55.505
X176.736Y-117.137
X176.86Y-126.136
X181.051Y-142.977
X185.304Y-80.357
X185.304Y-88.384
X186.284Y-46.838
X186.284Y-55.505
X186.896Y-117.137
X187.02Y-126.136
X190.892Y-80.586
X191.211Y-142.977
X191.639Y-46.787
X191.973Y-117.119
X194.437Y-142.977
X201.052Y-80.586
X201.799Y-46.787
X202.133Y-117.119
X203.511Y-70.553
X203.613Y-74.947
X203.964Y-112.056
X203.99Y-107.967
X204.547Y-41.459
X204.572Y-37.598
X204.597Y-142.977
X206.149Y-116.806
X206.149Y-126.966
X206.502Y-46.362
X206.502Y-56.522
X206.553Y-80.213
X206.553Y-90.373
X211.963Y-154.66
X212.014Y-150.063
X213.671Y-70.553
X213.773Y-74.947
X214.124Y-112.056
X214.15Y-107.967
X214.707Y-41.459
X214.732Y-37.598
X222.123Y-154.66
X222.174Y-150.063
X230.556Y-74.168
X230.556Y-84.328
X234.823Y-33.579
X234.823Y-43.739
X234.925Y-72.39
X234.925Y-82.55
X235.541Y-104.055
X235.541Y-114.215
X239.065Y-33.579
X239.065Y-43.739
X239.166Y-104.038
X239.166Y-114.198
X244.399Y-46.761
X244.399Y-56.921
X245.304Y-79.143
X245.304Y-89.303
X245.803Y-116.577
X245.803Y-126.737
X248.285Y-46.457
X248.285Y-56.617
X248.58Y-79.168
X248.58Y-89.328
X249.257Y-116.552
X249.257Y-126.712
T9
X215.407Y-141.196
X215.407Y-146.196
X220.407Y-143.696
X225.44Y-141.34
X225.44Y-146.34
X230.44Y-143.84
T10
X39.573Y-153.624
X39.599Y-149.865
X41.199Y-140.797
X41.199Y-143.337
X41.199Y-145.877
X42.113Y-153.624
X42.139Y-149.865
X44.653Y-153.624
X44.679Y-149.865
X47.193Y-153.624
X47.219Y-149.865
X47.6Y-140.568
X49.733Y-153.624
X49.759Y-149.865
X50.14Y-140.568
X52.273Y-153.624
X52.299Y-149.865
X52.68Y-140.568
X54.813Y-153.624
X54.839Y-149.865
X55.22Y-140.568
X57.76Y-140.568
X59.588Y-153.598
X60.3Y-140.568
X62.128Y-153.598
X62.84Y-140.568
X64.668Y-153.598
X65.38Y-140.568
X67.208Y-153.598
X69.748Y-153.598
X72.288Y-153.598
X74.828Y-153.598
X76.403Y-140.06
X76.403Y-142.6
X76.403Y-145.14
X76.403Y-147.68
X97.155Y-138.938
X97.155Y-141.478
X97.155Y-144.018
X97.155Y-146.558
X100.355Y-25.502
X102.895Y-25.502
X104.013Y-64.364
X104.013Y-66.904
X104.013Y-69.444
X104.013Y-71.984
X104.013Y-74.524
X104.013Y-77.064
X105.435Y-25.502
X107.975Y-25.502
X116.179Y-46.853
X116.179Y-49.393
X116.179Y-51.933
X117.173Y-120.823
X117.173Y-123.363
X117.173Y-125.903
X117.173Y-128.443
X117.173Y-130.983
X117.173Y-133.523
X117.173Y-136.063
X117.173Y-138.603
X117.173Y-141.143
X117.173Y-143.683
X117.173Y-146.223
X117.173Y-148.763
X117.173Y-151.303
X117.173Y-153.843
X117.173Y-156.383
X124.054Y-77.826
X126.594Y-77.826
X129.134Y-77.826
X129.565Y-114.706
X131.674Y-77.826
X131.902Y-64.287
X132.105Y-114.706
X134.214Y-77.826
X134.442Y-64.287
X134.645Y-114.706
X136.754Y-77.826
X136.982Y-64.287
X137.185Y-114.706
X139.294Y-77.826
X139.522Y-64.287
X141.834Y-77.826
X142.062Y-64.287
X142.723Y-120.883
X142.723Y-123.423
X142.723Y-125.963
X142.723Y-128.503
X142.723Y-131.043
X142.723Y-133.583
X142.723Y-136.123
X142.723Y-138.663
X142.723Y-141.203
X142.723Y-143.743
X142.723Y-146.283
X142.723Y-148.823
X142.723Y-151.363
X142.723Y-153.903
X142.723Y-156.443
X144.374Y-77.826
X144.602Y-64.287
X146.914Y-77.826
X147.142Y-64.287
X149.454Y-77.826
X149.682Y-64.287
X150.52Y-133.172
X150.978Y-143.865
X150.978Y-146.405
X150.978Y-148.945
X151.994Y-77.826
X152.222Y-64.287
X153.06Y-133.172
X154.534Y-77.826
X154.61Y-108.199
X154.61Y-110.739
X154.762Y-64.287
X155.6Y-133.172
X157.074Y-77.826
X157.302Y-64.287
X158.14Y-133.172
X159.614Y-77.826
X159.614Y-143.967
X159.614Y-146.507
X159.614Y-149.047
X159.842Y-64.287
X160.68Y-133.172
X161.338Y-112.436
X161.338Y-114.976
X162.154Y-77.826
X162.382Y-64.287
X164.922Y-64.287
X167.462Y-64.287
X170.002Y-64.287
X170.815Y-143.865
X170.815Y-146.405
X170.815Y-148.945
X175.219Y-98.19
X175.219Y-100.73
X179.553Y-96.012
X179.553Y-98.552
X179.553Y-101.092
X193.142Y-21.285
X193.294Y-27.711
X195.682Y-21.285
X195.834Y-27.711
X198.222Y-21.285
X198.374Y-27.711
X200.762Y-21.285
X200.914Y-27.711
X203.302Y-21.285
X203.454Y-27.711
X204.216Y-97.787
X204.216Y-100.327
X205.842Y-21.285
X205.994Y-27.711
T11
X32.207Y-132.309
X32.207Y-134.849
X32.207Y-137.389
X43.842Y-73.063
X43.967Y-109.042
X46.761Y-59.563
X48.006Y-91.389
X49.301Y-59.563
X50.546Y-91.389
X51.841Y-59.563
X53.086Y-91.389
X54.002Y-73.063
X54.127Y-109.042
X56.286Y-38.335
X56.286Y-48.495
X122.621Y-45.06
X122.621Y-47.6
X122.621Y-50.14
X145.35Y-106.402
X145.35Y-112.902
X149.85Y-106.402
X149.85Y-112.902
X165.032Y-110.233
X165.032Y-116.733
X167.255Y-96.037
X167.255Y-102.537
X169.532Y-110.233
X169.532Y-116.733
X171.755Y-96.037
X171.755Y-102.537
X193.194Y-96.782
X193.194Y-101.282
X199.694Y-96.782
X199.694Y-101.282
X233.985Y-64.11
X236.398Y-26.162
X236.525Y-64.11
X238.938Y-26.162
X239.065Y-64.11
X239.547Y-97.841
X239.878Y-81.432
X239.878Y-91.592
X240.386Y-46.736
X240.386Y-56.896
X241.478Y-26.162
X242.087Y-97.841
X242.171Y-116.907
X242.171Y-127.067
X244.627Y-97.841
T12
X29.093Y-79.585
X29.093Y-84.665
X29.346Y-47.733
X29.346Y-52.813
X29.388Y-116.281
X29.388Y-121.361
X140.741Y-31.801
X140.741Y-36.881
X149.225Y-31.801
X149.225Y-36.881
X179.451Y-153.01
X184.531Y-153.01
X189.611Y-153.01
X196.291Y-153.01
X201.371Y-153.01
X206.451Y-153.01
X254.483Y-47.752
X254.483Y-52.832
X254.549Y-80.971
X254.549Y-86.051
X255.277Y-119.092
X255.277Y-124.172
T13
X237.706Y-141.985
X245.706Y-141.985
T14
X28.049Y-153.264
X29.09Y-24.867
X85.217Y-95.555
X183.942Y-24.994
X186.03Y-98.704
X215.951Y-24.994
X215.951Y-98.374
X253.889Y-24.994
X253.889Y-98.374
X256.261Y-153.511
T15
X241.706Y-147.985
T4
X112.233Y-25.343G85X112.233Y-24.693
G05
X119.983Y-25.343G85X119.983Y-24.693
G05
T5
X124.602Y-24.818G85X124.602Y-24.018
G05
X124.602Y-28.548G85X124.602Y-27.048
G05
X133.252Y-24.818G85X133.252Y-24.018
G05
X133.252Y-28.548G85X133.252Y-27.048
G05
T8
X112.383Y-29.093G85X112.383Y-28.543
G05
X119.833Y-29.093G85X119.833Y-28.543
G05
T10
X156.133Y-27.318G85X156.133Y-29.318
G05
X161.833Y-25.318G85X159.833Y-25.318
G05
X161.833Y-31.318G85X159.833Y-31.318
G05
M30
